<?xml version="1.0" encoding="UTF-8"?>
<svg version="1.1" xmlns="http://www.w3.org/2000/svg" width="2591" height="678">
<path d="M0 0 C4.40036162 4.62144949 7.73641776 9.34851497 10.5625 15.0625 C10.975 15.84496094 11.3875 16.62742188 11.8125 17.43359375 C14.54288002 23.51058538 14.97015913 29.36898604 15.0625 35.9375 C15.09029541 37.13995361 15.09029541 37.13995361 15.11865234 38.36669922 C14.98362882 51.58576698 8.85769913 63.34821863 3.125 74.9375 C2.77212921 75.65760254 2.41925842 76.37770508 2.05569458 77.11962891 C-4.28731141 90.05654161 -11.08814809 102.66680896 -18.4375 115.0625 C-19.02354004 116.05620605 -19.60958008 117.04991211 -20.21337891 118.07373047 C-32.18507836 138.33622151 -44.61620341 158.32673723 -57.4375 178.0625 C-49.72776952 178.17911777 -42.08235785 178.02503973 -34.38671875 177.60546875 C-21.29086676 176.94409502 -8.18719253 176.64251165 4.921875 176.39501953 C7.69689445 176.34180515 10.47146397 176.27913215 13.24609375 176.20849609 C17.32006376 176.10485566 21.39415025 176.02810647 25.46875 175.953125 C26.69194946 175.91890442 27.91514893 175.88468384 29.17541504 175.84942627 C42.47058484 175.65644145 55.04148159 177.78164856 64.88671875 187.3125 C69.3758522 192.21266721 72.3779341 196.03428083 73.3125 202.6875 C73.74597833 205.04271843 73.74597833 205.04271843 74.5625 207.0625 C77.25574988 208.60011191 77.25574988 208.60011191 80.5625 209.0625 C82.16984309 209.75136132 83.77618248 210.44298139 85.37109375 211.16015625 C87.12783335 211.88351961 88.92120332 212.51764042 90.72265625 213.12109375 C97.88551526 215.5840836 102.06435294 217.19113971 105.5625 224.0625 C106.421875 225.90234375 106.421875 225.90234375 106.5625 228.0625 C103.97302355 233.25490472 100.72439486 235.44722385 95.625 237.8125 C87.81746566 241.71674145 81.2509148 246.48914935 74.5625 252.0625 C73.97549316 252.54799316 73.38848633 253.03348633 72.78369141 253.53369141 C61.57587963 262.84207718 51.5960549 272.58744377 42.5625 284.0625 C41.758125 285.073125 40.95375 286.08375 40.125 287.125 C29.22815685 300.94277873 20.15468058 315.726024 11.5625 331.0625 C11.1720752 331.75005371 10.78165039 332.43760742 10.37939453 333.14599609 C-9.47433883 368.26255615 -31.09592018 418.16317605 -20.4765625 459.30078125 C-18.32916311 465.00834278 -15.35382736 467.92007407 -10.1875 471 C0.13075339 473.92350513 10.06140354 471.45820126 19.44921875 466.5546875 C37.96293604 455.19819901 53.50087523 438.93390832 67.05078125 422.16796875 C68.91110248 419.86788263 70.78302335 417.58050364 72.66796875 415.30078125 C79.18098728 407.39955274 85.34925856 399.36494555 91.21435547 390.97412109 C93.25970635 388.07388615 95.34727364 385.20467152 97.43212891 382.33276367 C100.15285189 378.58362781 102.85916597 374.82418628 105.5625 371.0625 C106.02672363 370.41764648 106.49094727 369.77279297 106.96923828 369.10839844 C108.21642019 367.3692854 109.45378992 365.62368605 110.6875 363.875 C111.71230469 362.43060547 111.71230469 362.43060547 112.7578125 360.95703125 C114.67557399 358.05623217 114.67557399 358.05623217 116.00390625 354.59375 C117.66592605 350.8281713 119.78024398 347.89356546 122.375 344.75 C123.35999589 343.52523867 124.34433821 342.2999515 125.328125 341.07421875 C125.85083984 340.42759277 126.37355469 339.7809668 126.91210938 339.11474609 C129.85223951 335.45872037 132.73970527 331.76185723 135.625 328.0625 C136.22425293 327.29728027 136.82350586 326.53206055 137.44091797 325.74365234 C140.53574423 321.76700794 143.50757286 317.74984597 146.33691406 313.58081055 C154.64883119 301.39034771 166.73910926 287.02239176 180.5625 281.0625 C184.82867475 280.82101841 187.77818079 282.1922573 191.5625 284.0625 C192.9175617 284.68838203 194.27306141 285.31331629 195.62890625 285.9375 C207.92118701 291.76015931 207.92118701 291.76015931 212.5625 296.0625 C213.5625 299.0625 213.5625 299.0625 212.5859375 301.3828125 C207.95623004 309.2598977 202.62879227 316.37403168 197.0234375 323.57421875 C191.89189881 330.1824074 187.05679673 337.00308428 182.1875 343.80517578 C180.57510845 346.04498532 178.94669513 348.27215453 177.3125 350.49609375 C169.30270761 361.42083462 161.79839077 372.61123666 154.5625 384.0625 C154.08570801 384.81499023 153.60891602 385.56748047 153.11767578 386.34277344 C132.4942516 415.72447642 132.4942516 415.72447642 126.1875 449.375 C127.34051751 452.16124995 127.34051751 452.16124995 129.6875 453.5 C138.29626663 455.18432391 145.39033946 451.56116701 152.5625 447.0625 C157.50166848 443.3847585 162.02602279 439.21755832 166.5625 435.0625 C167.6924286 434.04265873 168.82263233 433.02312221 169.953125 432.00390625 C178.92729265 423.8599712 187.75861432 415.50653501 195.62890625 406.27734375 C197.66120527 403.9494376 199.75590791 401.69146434 201.86523438 399.43359375 C206.83634134 394.11049536 211.58604254 388.69397429 216.1484375 383.01171875 C219.0692182 379.44345107 222.09171142 375.97260736 225.125 372.5 C229.33127751 367.67421651 233.45012659 362.80900935 237.41015625 357.77734375 C239.67489119 354.92073616 241.97966228 352.09979386 244.2890625 349.27929688 C249.40547151 343.02396121 254.40428201 336.71431794 259.21484375 330.21875 C261.98480087 326.49474775 264.80176877 322.80867694 267.625 319.125 C268.74222161 317.66539069 269.8594081 316.2057545 270.9765625 314.74609375 C272.81181846 312.34884798 274.64731703 309.95178941 276.48339844 307.55517578 C285.39953057 295.91136768 294.27241475 284.23755043 302.87207031 272.35693359 C304.06297365 270.74051107 305.28414796 269.14617575 306.52636719 267.56884766 C311.60680997 260.97587896 315.01693932 254.28847968 318.07324219 246.55664062 C318.81160373 244.68976614 319.57165525 242.83295614 320.3359375 240.9765625 C325.21271812 228.92504181 328.84413101 217.17912609 330.75 204.3125 C331.07337424 202.1921795 331.40000838 200.07235266 331.73046875 197.953125 C331.86735107 197.03563477 332.0042334 196.11814453 332.14526367 195.17285156 C332.5625 193.0625 332.5625 193.0625 333.5625 192.0625 C346.32572628 190.60179305 357.58468515 195.35093963 367.5625 203.0625 C373.84923613 208.78833774 378.02471766 215.05059034 378.94140625 223.59375 C379.93440125 256.13836035 359.95716433 286.83369383 345.67797852 314.89501953 C343.61986234 318.94114082 341.58849057 323.0002041 339.5625 327.0625 C346.06907351 320.13756812 352.38871971 313.16532982 358.34375 305.75390625 C361.50743161 301.91627135 364.86481441 298.26971797 368.23046875 294.609375 C370.18655252 292.47308251 372.10437697 290.31469343 374 288.125 C380.65795147 280.47777744 387.50979786 273.02915423 394.73828125 265.91796875 C396.57639838 264.04836353 398.29235688 262.11399393 400 260.125 C405.66574388 253.55788778 411.84525445 247.55222369 418.43359375 241.91796875 C419.9513352 240.59516657 421.44085125 239.2396851 422.91015625 237.86328125 C447.29309001 215.02496773 477.79901041 192.18637389 512.56640625 192.77734375 C519.69920486 193.11203531 526.61486516 195.83999656 531.5625 201.0625 C538.54447233 210.80145627 541.12749674 220.35465463 541 232.25 C540.98755249 233.76219116 540.98755249 233.76219116 540.97485352 235.30493164 C540.31699647 264.59478732 521.22348897 293.32460238 505.5625 317.0625 C504.7342322 318.33193809 503.90610034 319.60146489 503.078125 320.87109375 C496.69395357 330.59824003 489.98743218 340.10487807 483.28662109 349.61523438 C481.67457234 351.90342138 480.06542434 354.19361764 478.45703125 356.484375 C473.37493164 363.71332416 468.24503052 370.90519628 463.0625 378.0625 C456.82527813 386.68027704 450.6410763 395.33195431 444.5625 404.0625 C444.11777344 404.69752441 443.67304688 405.33254883 443.21484375 405.98681641 C438.23606223 413.12616617 433.67375131 420.38615996 429.5625 428.0625 C429.18843018 428.75666016 428.81436035 429.45082031 428.42895508 430.16601562 C424.86576552 437.00020825 422.91823381 443.33130567 423.5625 451.0625 C425.10588091 453.23726401 426.19915273 453.88082637 428.5625 455.0625 C436.5346295 455.91059888 444.19252233 453.04961434 450.625 448.375 C454.50273141 445.23475125 458.19856183 441.87604464 461.875 438.50390625 C463.97314738 436.59788574 466.096362 434.7446523 468.24609375 432.8984375 C473.25608951 428.52482755 477.93479264 423.83641402 482.625 419.125 C483.91374023 417.84206055 483.91374023 417.84206055 485.22851562 416.53320312 C489.66506339 412.08987683 493.95821737 407.5839252 498.04956055 402.82055664 C500.12273602 400.41149797 502.2809718 398.08442362 504.4375 395.75 C508.50790056 391.28727168 512.36426909 386.69992 516.15625 382 C518.86029274 378.69896081 521.6437619 375.47498327 524.4375 372.25 C528.88911747 367.09479197 533.16692578 361.83465236 537.3449707 356.45605469 C540.87417957 351.91696854 544.4854711 347.45096659 548.125 343 C553.22727377 336.7450013 558.21072707 330.41986448 563.09423828 323.99169922 C564.80649972 321.74190044 566.526272 319.49793072 568.24609375 317.25390625 C579.60987383 302.40870488 590.72414376 287.39283455 601.6875 272.25 C602.22012451 271.51499268 602.75274902 270.77998535 603.30151367 270.02270508 C603.80271729 269.32814209 604.3039209 268.6335791 604.8203125 267.91796875 C605.2548877 267.31621826 605.68946289 266.71446777 606.13720703 266.09448242 C606.60755371 265.42392822 607.07790039 264.75337402 607.5625 264.0625 C608.65800171 262.67417969 608.65800171 262.67417969 609.77563477 261.2578125 C612.00357831 257.27375387 611.72504602 255.52010388 610.89453125 251.08203125 C610.72312874 250.1017823 610.72312874 250.1017823 610.54826355 249.10173035 C610.17997324 247.02124877 609.77893551 244.9488257 609.375 242.875 C608.87342891 240.15379205 608.38390469 237.43045597 607.89453125 234.70703125 C607.77378738 234.04404022 607.65304352 233.38104919 607.52864075 232.69796753 C603.13155782 208.16245467 603.83809714 184.46082967 617.5625 163.0625 C620.06271497 159.56500827 622.74332649 156.30484754 625.5625 153.0625 C626.01753906 152.464375 626.47257812 151.86625 626.94140625 151.25 C638.781536 135.98153417 660.30142595 125.76787222 679 122.453125 C698.62181418 120.30161029 698.62181418 120.30161029 706.5625 126.0625 C708.81222574 128.44857276 709.51521797 129.9019411 709.6484375 133.171875 C709.13243426 141.2649784 704.3155491 146.50615038 699.4375 152.625 C698.45815866 153.86835202 697.47899582 155.11184466 696.5 156.35546875 C694.6612357 158.68348431 692.80694113 160.99736271 690.9375 163.30078125 C671.72761721 187.23410085 668.25018501 209.68194486 671.5625 239.9375 C674.60093656 265.09552378 680.25355273 289.98965737 685.49438477 314.75854492 C701.13356301 388.70686508 701.13356301 388.70686508 692.5625 424.0625 C702.01656208 415.40456947 711.1218286 406.96245155 719.17578125 396.953125 C721.55620482 394.07012428 724.02929782 391.31171167 726.5625 388.5625 C729.81757083 385.0269923 732.92886881 381.43471213 735.9375 377.6875 C739.23547994 373.59106175 742.69877766 369.74957919 746.3125 365.9375 C752.71869607 359.12785249 758.27947947 351.76618664 763.87841797 344.29052734 C766.70422816 340.55200258 769.60775778 336.87468599 772.5 333.1875 C779.10404942 324.73241261 785.47760566 316.11893721 791.80810547 307.45800781 C794.15066311 304.25940281 796.50771243 301.07160638 798.86425781 297.88330078 C804.04952627 290.86463873 809.20257288 283.8237156 814.3125 276.75 C814.84617187 276.01257568 815.37984375 275.27515137 815.9296875 274.51538086 C818.47050588 270.99626899 820.98731783 267.46396612 823.45703125 263.89453125 C823.90916992 263.24589111 824.36130859 262.59725098 824.82714844 261.92895508 C825.66476746 260.72436565 826.49539519 259.51487025 827.31738281 258.29956055 C829.41176711 255.29582042 831.03756811 253.2374773 834.5625 252.0625 C840.73133117 251.41314935 840.73133117 251.41314935 843.5625 253.625 C845.01566735 257.16709542 844.41713431 259.34255155 843.5625 263.0625 C842.14850388 265.71558386 840.37902181 268.04747883 838.5625 270.4375 C837.46358288 271.93692708 836.36739452 273.43835653 835.2734375 274.94140625 C834.67756836 275.75625488 834.08169922 276.57110352 833.46777344 277.41064453 C829.93588294 282.32650749 826.57359184 287.35815715 823.1875 292.375 C808.79706364 313.61001975 794.09487931 334.64289827 778.5625 355.0625 C777.41587891 356.57650391 777.41587891 356.57650391 776.24609375 358.12109375 C770.0221671 366.30150809 763.56614038 374.28478936 757.05517578 382.23779297 C755.74063798 383.84473696 754.43051698 385.45529191 753.12109375 387.06640625 C744.74053424 397.36594898 736.21178437 407.48447387 727.18359375 417.22265625 C724.75747394 419.85125401 722.3745955 422.51242844 720 425.1875 C713.59937671 432.30819341 706.88718553 439.07616685 699.60546875 445.296875 C697.3161044 447.2754461 695.10058658 449.32502331 692.875 451.375 C660.7669495 480.21865083 625.09040332 499.98745555 581.22949219 498.2265625 C563.12345739 497.11275296 548.29739647 489.19227308 535.8125 476.375 C525.10607014 464.0039662 521.68483897 447.97041696 522.203125 431.98046875 C522.64780539 427.13248586 523.62248699 423.00546059 526.5625 419.0625 C529.77828917 416.91864055 531.794456 416.5905129 535.625 416.66796875 C537.5625 417.0625 537.5625 417.0625 540 419.4375 C542.15788027 423.06273886 542.73858907 425.45487876 543.10693359 429.67480469 C544.07200993 440.29752141 546.23089804 449.89531105 553.5625 458.0625 C564.19146006 466.15542748 575.40676424 468.26969994 588.5625 467.0625 C598.99980171 464.97255162 608.30810329 459.78839218 614.5625 451.0625 C641.37496559 402.78830208 624.44510115 333.58158669 615.5625 282.0625 C611.29156486 285.88331207 608.28829093 290.5603119 605.0625 295.25 C603.80232667 297.06527312 602.54190608 298.88037461 601.28125 300.6953125 C600.65347656 301.6018457 600.02570313 302.50837891 599.37890625 303.44238281 C587.31829766 320.83948649 575.02676087 338.02129152 561.57421875 354.375 C557.58076682 359.23812583 553.77566322 364.23819473 549.95800781 369.24023438 C541.98792028 379.64764049 533.91865069 389.96218124 525.5625 400.0625 C524.87285156 400.91457031 524.18320313 401.76664062 523.47265625 402.64453125 C513.60341162 414.83385147 503.2411109 426.57874197 492.5625 438.0625 C491.99321777 438.67689941 491.42393555 439.29129883 490.83740234 439.92431641 C488.99768955 441.90967108 487.15556506 443.89275723 485.3125 445.875 C484.7460376 446.48537109 484.1795752 447.09574219 483.59594727 447.72460938 C477.22625747 454.55412073 470.65219025 460.98399954 463.5625 467.0625 C462.43717449 468.03998997 461.31220335 469.01788799 460.1875 469.99609375 C458.95854638 471.06014194 457.72937833 472.12394253 456.5 473.1875 C455.92241943 473.69047607 455.34483887 474.19345215 454.74975586 474.71166992 C451.84490498 477.21383559 448.91076788 479.57122358 445.7734375 481.77734375 C442.55833905 483.91068 442.55833905 483.91068 440.25 486.5 C429.87291328 496.39443152 414.91592073 500.50910222 400.8203125 500.3359375 C390.1589028 499.44109496 381.52458091 494.8319036 374.59375 486.7734375 C363.29757803 471.69591983 362.86380243 453.46402465 364.86279297 435.33984375 C365.68408849 430.12540186 366.99859352 425.09928944 368.5625 420.0625 C369.12904297 418.19271484 369.12904297 418.19271484 369.70703125 416.28515625 C378.41147712 390.80295671 393.75969982 366.75146629 409.27294922 344.88134766 C410.4936476 343.15961291 411.70308726 341.43052387 412.91015625 339.69921875 C422.72919001 325.69853852 433.29552042 312.22882653 443.8125 298.75 C449.65522852 291.25727969 455.43990307 283.72656797 461.07714844 276.07763672 C462.08745268 274.70698399 463.10126154 273.33890909 464.11816406 271.97314453 C471.43209759 262.11631709 477.43007516 252.21322027 482.5625 241.0625 C482.8925 240.4025 483.2225 239.7425 483.5625 239.0625 C483.89583333 235.5625 483.89583333 235.5625 483.5625 232.0625 C479.19809578 229.15289719 475.68513565 229.43412336 470.5625 230.0625 C460.3929674 232.50734927 453.06439068 237.95761964 445.2890625 244.59619141 C443.67110649 245.97026434 442.02960885 247.30719549 440.375 248.63671875 C432.32431094 255.20599309 424.96722506 262.4741959 417.625 269.8125 C417.12831818 270.30818481 416.63163635 270.80386963 416.11990356 271.3145752 C410.3851643 277.05061951 404.8046893 282.86953372 399.5625 289.0625 C398.5651413 290.22659431 397.56774638 291.3906576 396.5703125 292.5546875 C395.60919414 293.68213751 394.64825906 294.80974379 393.6875 295.9375 C390.18732438 300.04058973 386.65019365 304.09119416 383 308.0625 C379.02992384 312.43316042 375.40310198 317.01625854 371.78881836 321.6796875 C368.64203379 325.72750485 365.39871434 329.66975497 362.0625 333.5625 C356.35581309 340.23862762 350.94616711 347.12491079 345.5625 354.0625 C344.45856904 355.48065227 343.35439265 356.8986135 342.25 358.31640625 C339.29015656 362.11757362 336.33394131 365.92154742 333.37841797 369.72607422 C331.55692692 372.06967053 329.73381223 374.41199427 327.91015625 376.75390625 C322.77848719 383.34473556 317.64981717 389.93735003 312.5625 396.5625 C305.66289094 405.5477752 298.69098881 414.47692988 291.73046875 423.41503906 C289.9241763 425.73479045 288.11827184 428.05484333 286.3125 430.375 C285.72573486 431.1285376 285.13896973 431.8820752 284.53442383 432.65844727 C281.98390879 435.93665466 279.43773116 439.21760671 276.91796875 442.51953125 C270.78512 450.55465295 264.45895549 458.41326709 258.05517578 466.23339844 C256.73606017 467.84982209 255.42774325 469.47504521 254.12109375 471.1015625 C233.04430233 497.2684556 233.04430233 497.2684556 224.125 500.1875 C210.87911375 499.72273206 200.7552059 494.53257202 191.5625 485.0625 C189.20051727 481.51952591 189.10635929 480.23872165 189.5625 476.0625 C190.67860621 473.72399176 191.79260778 471.71973791 193.1875 469.5625 C193.58646484 468.92143311 193.98542969 468.28036621 194.39648438 467.61987305 C195.76974754 465.42394264 197.16418382 463.24255565 198.5625 461.0625 C199.6017937 459.43374125 200.64084676 457.80482894 201.6796875 456.17578125 C203.39588045 453.48582602 205.11283089 450.79638444 206.83325195 448.10913086 C214.62875309 435.89462308 222.0847775 423.47298042 229.5625 411.0625 C230.43614552 409.61585377 231.30983412 408.16923356 232.18359375 406.72265625 C238.12836832 396.86258014 243.96535245 386.9380997 249.81591797 377.02197266 C252.83334117 371.90914011 255.85438355 366.79844641 258.875 361.6875 C259.97527615 359.82553013 261.07553807 357.96355185 262.17578125 356.1015625 C262.97135417 354.75520833 263.76692708 353.40885417 264.5625 352.0625 C261.03531534 355.45927818 257.99822954 358.9590183 255.0625 362.875 C249.56350888 370.13598808 243.82442151 377.19078305 238.05517578 384.23779297 C236.74063798 385.84473696 235.43051698 387.45529191 234.12109375 389.06640625 C228.82965436 395.56948113 223.43995879 401.98452173 218.00390625 408.36669922 C216.56050384 410.06484846 215.12368577 411.76840193 213.6875 413.47265625 C206.82317399 421.58786094 199.68342799 429.40004331 192.38330078 437.12402344 C190.54272478 439.08355326 188.72057235 441.05879437 186.90234375 443.0390625 C174.97524389 455.98853015 162.45048598 468.21193915 148.5625 479.0625 C147.23029695 480.13650568 145.89828026 481.21074255 144.56640625 482.28515625 C136.30975126 488.86459088 128.55837338 494.4058175 118.5625 498.0625 C117.89734375 498.32417969 117.2321875 498.58585938 116.546875 498.85546875 C106.6203666 502.0707943 94.4602546 501.16154802 85.18359375 496.66796875 C76.20352753 491.1675109 71.37501947 483.27685245 68.46875 473.3125 C67.41923484 468.91177436 67.12504922 464.57149589 66.9375 460.0625 C66.87949219 458.90041016 66.87949219 458.90041016 66.8203125 457.71484375 C66.72728643 455.83106585 66.64386825 453.94681744 66.5625 452.0625 C66.01464844 452.82691406 65.46679688 453.59132813 64.90234375 454.37890625 C50.17634234 474.46357124 29.81861991 494.24769853 4.6171875 499.62890625 C-12.76273481 502.09587732 -30.85845542 497.97914035 -45.21875 487.78125 C-63.00546551 474.00280841 -72.19225534 456.14379204 -75.4375 434.0625 C-78.69770627 374.05494589 -49.36104109 319.52958835 -12.4375 274.0625 C-11.99245117 273.51158691 -11.54740234 272.96067383 -11.08886719 272.39306641 C0.848735 257.72427242 14.29231746 243.29118811 29.5625 232.0625 C30.19365723 231.5979541 30.82481445 231.1334082 31.47509766 230.65478516 C39.54621773 224.74968062 47.65271151 219.16540078 56.4375 214.3671875 C58.69423571 213.23922403 58.69423571 213.23922403 59.5625 211.0625 C42.25347302 206.20950178 26.68221555 204.85805857 8.75 205.3125 C7.81097839 205.33516937 6.87195679 205.35783875 5.90447998 205.38119507 C-11.39956237 205.81607004 -28.62799064 206.75211732 -45.85528564 208.44804382 C-50.17135911 208.86984542 -54.48080151 209.20259625 -58.80973816 209.45880127 C-73.00581871 209.78349308 -73.00581871 209.78349308 -85.1015625 216.0703125 C-87.61326723 219.30745691 -89.35635917 222.85200165 -91.11572266 226.53759766 C-93.72681492 231.52539156 -97.16616653 235.99307796 -100.4375 240.5625 C-101.82338931 242.54603087 -103.20625776 244.5316762 -104.5859375 246.51953125 C-105.24561523 247.46779785 -105.90529297 248.41606445 -106.58496094 249.39306641 C-109.09036333 253.00324956 -111.57857267 256.62502292 -114.0625 260.25 C-120.45212288 269.56885244 -126.9421695 278.81714534 -133.4375 288.0625 C-133.95989258 288.80677246 -134.48228516 289.55104492 -135.02050781 290.31787109 C-141.18065662 299.09063607 -147.39227829 307.82226739 -153.72290039 316.47314453 C-157.7274839 321.97774891 -161.50651968 327.61751468 -165.26330566 333.29336548 C-167.4666328 336.61307328 -169.68830385 339.92051923 -171.90625 343.23046875 C-183.61234202 360.72045301 -195.21828764 378.2548769 -206.4375 396.0625 C-206.99937012 396.94824707 -207.56124023 397.83399414 -208.14013672 398.74658203 C-221.15849281 419.28563901 -232.88746017 440.52845469 -243.95214844 462.17675781 C-245.47053536 465.12668112 -247.01895177 468.05949133 -248.5703125 470.9921875 C-261.81387973 496.31829295 -269.63996824 522.09539128 -270.11108398 550.76953125 C-270.28048888 559.85025813 -270.5312385 567.86004185 -276.90234375 574.78515625 C-279.91109118 577.28861785 -283.27632994 577.41150923 -287.0703125 577.328125 C-297.06730737 576.20635 -303.60987178 571.08313538 -310.4375 564.0625 C-311.00210937 563.51851562 -311.56671875 562.97453125 -312.1484375 562.4140625 C-322.20580544 551.93098587 -327.83828195 534.36883104 -328.4375 520.0625 C-328.51484375 518.41314453 -328.51484375 518.41314453 -328.59375 516.73046875 C-329.27708422 488.1727929 -320.28263111 463.16978786 -307.4375 438.0625 C-306.44091221 436.07576858 -305.44480813 434.08879443 -304.44921875 432.1015625 C-291.19353775 405.91313472 -275.01978314 380.95013329 -257.171875 357.66015625 C-254.46461125 354.12524875 -251.87949173 350.51249258 -249.3125 346.875 C-244.92235479 340.67381079 -240.33634866 334.64442569 -235.66992188 328.64941406 C-233.66423626 326.06681571 -231.67744642 323.46973406 -229.6875 320.875 C-227.9393931 318.60270483 -226.18876121 316.33236475 -224.4375 314.0625 C-223.91140137 313.38026367 -223.38530273 312.69802734 -222.84326172 311.99511719 C-216.02080201 303.15724417 -209.12333525 294.39452067 -202.05371094 285.75292969 C-197.91695392 280.68508608 -193.91980428 275.5256869 -189.953125 270.32421875 C-187.23289008 266.77519593 -184.4303452 263.29436954 -181.625 259.8125 C-176.60561179 253.57950768 -171.71908367 247.25307462 -166.8894043 240.87207031 C-163.83509737 236.84609235 -160.70406748 232.91861372 -157.4375 229.0625 C-164.90471169 230.38908878 -172.07513492 232.30843942 -179.3125 234.5625 C-180.43454834 234.91143311 -181.55659668 235.26036621 -182.71264648 235.61987305 C-203.56359617 242.18804493 -223.8595172 249.70051238 -243.73095703 258.82226562 C-246.13534501 259.92404183 -248.54767189 261.00479402 -250.96484375 262.078125 C-282.78487333 276.39209818 -314.10777579 295.86178327 -338.4375 321.0625 C-339.324375 321.8875 -340.21125 322.7125 -341.125 323.5625 C-347.10956115 330.03229584 -349.33902677 336.42615099 -351.34765625 344.98828125 C-352.54481796 348.36522126 -353.28429143 349.4426616 -356.4375 351.0625 C-360.77440915 351.90625664 -364.30255191 350.76665224 -368 348.47265625 C-375.80690885 342.0819397 -381.33763133 333.00329241 -383.4375 323.0625 C-384.42120875 311.99204524 -383.91212217 301.34461051 -379.4375 291.0625 C-379.04433594 290.12921875 -378.65117188 289.1959375 -378.24609375 288.234375 C-358.46810978 248.78618898 -303.74175405 228.5555478 -264.82324219 215.18261719 C-254.47007484 211.75744184 -243.97392661 208.86260773 -233.4375 206.0625 C-232.3448584 205.76778809 -231.2522168 205.47307617 -230.12646484 205.16943359 C-215.60770969 201.27912676 -200.97295518 198.00801856 -186.25 195 C-185.4160672 194.82767853 -184.5821344 194.65535706 -183.72293091 194.47781372 C-173.8954867 192.46309376 -164.12445243 190.8260591 -154.1484375 189.75 C-152.28534327 189.5344286 -150.42230543 189.31836935 -148.55932617 189.10180664 C-145.02498311 188.69353959 -141.49780518 188.37553005 -137.95043945 188.10717773 C-128.638812 187.19904327 -128.638812 187.19904327 -121.1706543 181.99658203 C-118.68946155 178.86861639 -116.62414149 175.53325564 -114.62741089 172.08084106 C-113.1267404 169.53538585 -111.45996224 167.13480791 -109.76318359 164.71751404 C-107.75933885 161.86041583 -105.82304691 158.95779094 -103.875 156.0625 C-103.04108339 154.82672226 -102.2070158 153.59104639 -101.37280273 152.35546875 C-99.76207539 149.96862765 -98.15326035 147.58051479 -96.54589844 145.19140625 C-94.84280675 142.66398348 -93.13220375 140.14219212 -91.4140625 137.625 C-84.66344354 127.69530285 -78.48716594 117.43159455 -72.4375 107.0625 C-71.7878125 105.95116699 -71.7878125 105.95116699 -71.125 104.81738281 C-55.68672584 78.68607623 -55.68672584 78.68607623 -46.4375 50.0625 C-46.26863281 49.1653125 -46.09976563 48.268125 -45.92578125 47.34375 C-44.51085764 36.998072 -45.31074752 23.83342987 -51.4375 15.0625 C-52.13875 14.03125 -52.84 13 -53.5625 11.9375 C-61.93035391 2.66501324 -76.42573502 -1.3344864 -88.4375 -2.9375 C-91.72248638 -3.10009694 -95.00435595 -3.12470106 -98.29296875 -3.140625 C-99.25487122 -3.14763931 -100.21677368 -3.15465363 -101.20782471 -3.16188049 C-104.34693033 -3.17947793 -107.48584665 -3.185746 -110.625 -3.1875 C-111.70105499 -3.18817474 -112.77710999 -3.18884949 -113.88577271 -3.18954468 C-133.2133162 -3.17035184 -152.2550463 -2.29501711 -171.4375 0.0625 C-172.11393555 0.145 -172.79037109 0.2275 -173.48730469 0.3125 C-256.78343732 10.60085842 -338.07304539 41.0629888 -410.4375 83.0625 C-411.68950195 83.78493896 -411.68950195 83.78493896 -412.96679688 84.52197266 C-444.89586417 103.01433133 -475.524152 124.50957329 -503.50390625 148.5625 C-506.23361025 150.88874575 -509.01058751 153.13676153 -511.8125 155.375 C-518.37898761 160.71803723 -524.47120502 166.55237463 -530.62255859 172.36083984 C-532.79545177 174.39810988 -534.9958317 176.40318427 -537.20263672 178.40356445 C-546.12181432 186.49124359 -554.65501951 194.86502305 -562.4375 204.0625 C-563.22253906 204.95839844 -564.00757813 205.85429687 -564.81640625 206.77734375 C-581.88761706 226.38479432 -598.66291351 247.67048402 -604.54296875 273.36328125 C-606.18219074 280.1420726 -606.18219074 280.1420726 -607.4375 283.0625 C-609.50854492 284.2277832 -609.50854492 284.2277832 -611.4375 285.0625 C-610.94890503 286.06941895 -610.94890503 286.06941895 -610.45043945 287.09667969 C-602.49427768 303.51138079 -594.70577818 319.99402451 -587.05810547 336.55517578 C-584.37930898 342.35264344 -581.68967526 348.14507332 -579 353.9375 C-578.46560303 355.08871338 -577.93120605 356.23992676 -577.38061523 357.42602539 C-571.67222813 369.71884343 -565.93859968 381.99985009 -560.20361328 394.28027344 C-558.44632897 398.04333466 -556.68983626 401.80676497 -554.93359375 405.5703125 C-554.64468262 406.18943008 -554.35577148 406.80854767 -554.05810547 407.44642639 C-552.6078307 410.55433508 -551.15764631 413.66228593 -549.70751953 416.77026367 C-547.00038978 422.57206645 -544.29255224 428.37353545 -541.5821228 434.17379761 C-540.31691294 436.88143752 -539.05211855 439.58927142 -537.78735352 442.29711914 C-537.19055467 443.57455932 -536.59355751 444.85190687 -535.99633789 446.12915039 C-532.43141461 453.75341726 -528.90178123 461.39193978 -525.4375 469.0625 C-520.03972723 457.99045992 -515.55361308 446.56971993 -511.01449585 435.12716675 C-508.83422945 429.63189557 -506.64383443 424.14066282 -504.45405006 418.64917946 C-503.68163088 416.71184192 -502.90960967 414.77434611 -502.13761902 412.83683777 C-496.76377119 399.35390559 -491.33806814 385.89199303 -485.90514755 372.4327774 C-484.85809292 369.83875077 -483.81134372 367.24460094 -482.76457882 364.65045738 C-480.91356541 360.06322433 -479.0623713 355.47606425 -477.21076965 350.8890686 C-473.50688673 341.71335666 -469.80535019 332.53670115 -466.10546875 323.359375 C-465.71451838 322.38966168 -465.71451838 322.38966168 -465.31567001 321.4003582 C-464.00310875 318.14467103 -462.69057466 314.8889729 -461.37805176 311.63327026 C-454.86523546 295.47841663 -448.35112958 279.32408473 -441.83145142 263.17199898 C-441.03962635 261.2102932 -440.24783596 259.24857343 -439.45605469 257.28684998 C-436.98657681 251.16852481 -434.51678353 245.05032726 -432.04638672 238.93237305 C-431.1546128 236.7231484 -430.2628482 234.51392 -429.37109375 232.3046875 C-428.94916748 231.26014908 -428.52724121 230.21561066 -428.0925293 229.13941956 C-426.0643351 224.11403762 -424.0458629 219.08512327 -422.04736328 214.04785156 C-421.67490982 213.11039093 -421.30245636 212.1729303 -420.91871643 211.20706177 C-420.22283219 209.45331809 -419.52913406 207.69870482 -418.83799744 205.94308472 C-416.54803945 200.17303945 -416.54803945 200.17303945 -415.4375 199.0625 C-412.98919574 198.97406207 -410.56929401 198.94721248 -408.12109375 198.96484375 C-407.39003922 198.9662587 -406.65898468 198.96767365 -405.90577698 198.96913147 C-403.56214368 198.97474592 -401.21860461 198.98730078 -398.875 199 C-397.28971492 199.00501314 -395.70442834 199.00957637 -394.11914062 199.01367188 C-390.2252239 199.02472003 -386.33137795 199.04199428 -382.4375 199.0625 C-383.11065832 203.30965356 -384.5179044 206.95682999 -386.18359375 210.9140625 C-386.46567688 211.58792999 -386.74776001 212.26179749 -387.03839111 212.95608521 C-387.97961832 215.20172605 -388.92735993 217.44455865 -389.875 219.6875 C-390.5503437 221.29570634 -391.22521899 222.90410945 -391.8996582 224.51269531 C-393.33636076 227.93751378 -394.77560529 231.36124787 -396.21679688 234.78417969 C-399.49402543 242.56984293 -402.75266891 250.36328427 -406.01321411 258.15594482 C-407.13842373 260.84457531 -408.26431694 263.53291863 -409.39038086 266.22119141 C-415.08928734 279.82808811 -420.76678397 293.44383404 -426.4375 307.0625 C-435.00683609 327.64141359 -443.60611958 348.20764942 -452.21972656 368.76806641 C-455.58502008 376.80131778 -458.94763208 384.83569169 -462.31048584 392.8699646 C-464.18605114 397.35085414 -466.06178391 401.83167358 -467.9375 406.3125 C-468.68750081 408.10416633 -469.43750081 409.895833 -470.1875 411.6875 C-474.68749999 422.43749998 -474.68749999 422.43749998 -475.81237793 425.12469482 C-476.56279771 426.91737335 -477.3132046 428.71005728 -478.06359863 430.50274658 C-479.93207057 434.96647601 -481.80076239 439.43011312 -483.66992188 443.89355469 C-487.52452771 453.09883183 -491.37486721 462.30586466 -495.21875 471.515625 C-518.23905529 526.65873186 -518.23905529 526.65873186 -526.4375 542.0625 C-526.75928223 542.66884277 -527.08106445 543.27518555 -527.41259766 543.89990234 C-540.57887859 568.44509738 -559.28412874 589.52656503 -586 599.03125 C-615.53069188 607.89045756 -650.02739152 603.97475808 -677.4375 590.0625 C-675.70401651 585.4052077 -673.96228469 580.75118476 -672.20703125 576.10205078 C-671.54165482 574.33854992 -670.87986846 572.57369529 -670.21875 570.80859375 C-669.8784375 569.92300781 -669.538125 569.03742187 -669.1875 568.125 C-668.89359375 567.35285156 -668.5996875 566.58070313 -668.296875 565.78515625 C-667.4375 564.0625 -667.4375 564.0625 -665.4375 563.0625 C-663.24420737 563.89101026 -661.08252994 564.80352846 -658.9375 565.75 C-639.12066437 573.92095666 -613.87240787 577.77886907 -593.26171875 570.3828125 C-567.2985199 558.24510681 -554.3599814 532.74819577 -542.44921875 508.09375 C-540.82474045 503.22658722 -542.41875067 499.73258109 -544.59765625 495.265625 C-545.28118164 493.85313477 -545.28118164 493.85313477 -545.97851562 492.41210938 C-546.48060547 491.38923828 -546.98269531 490.36636719 -547.5 489.3125 C-548.28987305 487.68538086 -548.28987305 487.68538086 -549.09570312 486.02539062 C-550.25168075 483.64527947 -551.4096488 481.26625199 -552.57080078 478.88867188 C-554.51149337 474.91366972 -556.4421403 470.93383452 -558.37109375 466.953125 C-558.70360641 466.2669812 -559.03611908 465.5808374 -559.37870789 464.87390137 C-560.0565352 463.4751871 -560.73434578 462.07646473 -561.41213989 460.67773438 C-562.44332726 458.55047884 -563.47532691 456.42361922 -564.50756836 454.296875 C-569.03038774 444.97719921 -573.52752224 435.64556229 -578.00439453 426.30371094 C-581.76070349 418.46698952 -585.53293012 410.63802283 -589.3125 402.8125 C-589.6049762 402.20692261 -589.89745239 401.60134521 -590.1987915 400.97741699 C-591.68411719 397.90218105 -593.16964994 394.8270452 -594.65527344 391.75195312 C-597.29285008 386.29218751 -599.9286208 380.8315501 -602.56451416 375.37097168 C-604.02210084 372.35144478 -605.47980649 369.33197532 -606.9375 366.3125 C-607.5208339 365.10416694 -608.10416724 363.89583361 -608.6875 362.6875 C-608.97625 362.089375 -609.265 361.49125 -609.5625 360.875 C-640.18749999 297.43750001 -640.18749999 297.43750001 -641.06246948 295.62506104 C-641.64590227 294.41652315 -642.22933732 293.20798637 -642.81277466 291.99945068 C-644.26960507 288.98175595 -645.72639613 285.96404224 -647.18310547 282.94628906 C-650.12379722 276.8543936 -653.06518422 270.7628353 -656.0078125 264.671875 C-663.06050522 250.07252853 -670.11106905 235.47213571 -677.10644531 220.84521484 C-677.97973311 219.01951157 -678.85404759 217.19429896 -679.72949219 215.36962891 C-680.88621301 212.95665974 -682.03779242 210.54131688 -683.1875 208.125 C-683.52313965 207.42665039 -683.8587793 206.72830078 -684.20458984 206.00878906 C-686.4375 201.29232368 -686.4375 201.29232368 -686.4375 199.0625 C-674.8875 199.0625 -663.3375 199.0625 -651.4375 199.0625 C-646.4375 209.0625 -646.4375 209.0625 -646.4375 212.0625 C-643.01919176 208.87885823 -640.39228766 205.32439113 -637.75 201.5 C-633.25214825 195.10718159 -628.47840956 189.0396979 -623.4375 183.0625 C-622.64988281 182.08925781 -621.86226562 181.11601562 -621.05078125 180.11328125 C-614.24731745 171.81428356 -606.76922736 164.20586608 -599.1875 156.625 C-598.66807831 156.10467194 -598.14865662 155.58434387 -597.61349487 155.04824829 C-591.73332867 149.16924182 -585.76241667 143.46599763 -579.4375 138.0625 C-577.82981627 136.60804483 -576.22510285 135.15029105 -574.625 133.6875 C-570.36139983 129.84443702 -565.99197727 126.16927266 -561.52734375 122.5625 C-559.27789335 120.74246428 -557.04276208 118.91031118 -554.81640625 117.0625 C-545.69736642 109.52358847 -536.31315517 102.46782934 -526.65478516 95.63574219 C-524.5258312 94.12517411 -522.40814243 92.60009485 -520.29296875 91.0703125 C-493.20275211 71.56832849 -464.25034204 55.00728728 -434.4375 40.0625 C-432.97062744 39.32604248 -432.97062744 39.32604248 -431.47412109 38.57470703 C-356.63718941 1.26570839 -273.69649062 -20.85908212 0 0 Z M265.5625 348.0625 C266.5625 350.0625 266.5625 350.0625 266.5625 350.0625 Z " fill="#03B0F0" transform="translate(1706.4375,57.9375)"/>
<path d="M0 0 C3.00583222 2.69630278 5.93531815 5.46504308 8.85546875 8.25390625 C9.78101563 9.12660156 10.7065625 9.99929687 11.66015625 10.8984375 C18.81826718 17.82335218 24.90028366 25.29255726 30.85546875 33.25390625 C31.28214844 33.8144873 31.70882813 34.37506836 32.1484375 34.95263672 C39.40400977 44.51045789 45.32569467 54.61490724 50.85546875 65.25390625 C51.43361328 66.3531543 51.43361328 66.3531543 52.0234375 67.47460938 C68.63286414 99.41799473 76.31069761 134.74219412 76.23046875 170.56640625 C76.22965302 171.94378967 76.22965302 171.94378967 76.2288208 173.34899902 C76.05922358 235.90459553 50.38195493 293.23268065 6.20825195 337.20556641 C0.67177527 342.58507135 -5.22710726 347.3860292 -11.42529297 351.97900391 C-13.09424447 353.21661605 -14.74630678 354.47444444 -16.3984375 355.734375 C-26.38561488 363.22512975 -37.16784664 369.34042571 -48.14453125 375.25390625 C-48.84352539 375.63289063 -49.54251953 376.011875 -50.26269531 376.40234375 C-101.14375937 403.48461096 -165.05012426 407.21260064 -219.75854492 390.81005859 C-260.24407725 378.07263495 -300.25241361 354.72226227 -327.14453125 321.25390625 C-328.05300352 320.15723561 -328.96190037 319.06091663 -329.87109375 317.96484375 C-370.76303964 268.24687187 -386.99579492 207.19536475 -381.671875 143.55078125 C-381.11073534 138.38802531 -380.21854084 133.33253379 -379.14453125 128.25390625 C-378.94585449 127.27824707 -378.74717773 126.30258789 -378.54248047 125.29736328 C-367.84856445 73.89447256 -340.63651864 25.98154336 -299.14453125 -6.74609375 C-297.69820312 -7.91785156 -297.69820312 -7.91785156 -296.22265625 -9.11328125 C-222.43655369 -67.73015968 -121.73383291 -73.28700163 0 0 Z M-305.50366211 33.87207031 C-343.4100591 76.46076954 -359.14584526 129.97322634 -357.14453125 186.25390625 C-355.29312306 213.78065981 -347.27351605 241.05037964 -334.14453125 265.25390625 C-333.79132813 265.91874023 -333.438125 266.58357422 -333.07421875 267.26855469 C-321.37097372 289.25423712 -305.57119886 310.48637124 -286.14453125 326.25390625 C-285.09220261 327.14163637 -284.04014464 328.0296874 -282.98828125 328.91796875 C-241.42956082 363.56640353 -188.81735648 379.07455237 -135.14453125 374.56640625 C-87.9519114 369.9996526 -45.24275076 349.93521691 -11.14453125 317.25390625 C-10.26643799 316.42463623 -10.26643799 316.42463623 -9.37060547 315.57861328 C28.5580152 279.62679359 50.33290687 228.42760355 51.85546875 176.25390625 C52.56211997 121.35593925 32.15830552 68.40102347 -5.77978516 28.68603516 C-7.09401592 27.30691572 -8.39113786 25.91155412 -9.6875 24.515625 C-17.42517326 16.42677141 -26.09646636 9.80436102 -35.14453125 3.25390625 C-36.07241455 2.57497314 -36.07241455 2.57497314 -37.01904297 1.88232422 C-114.51735569 -54.28852096 -222.72991951 -42.08486791 -305.50366211 33.87207031 Z " fill="#363636" transform="translate(405.14453125,222.74609375)"/>
<path d="M0 0 C0.72901016 -0.00570007 1.45802032 -0.01140015 2.2091217 -0.01727295 C3.74787981 -0.02666919 5.28665754 -0.03323538 6.82543945 -0.03710938 C9.12294075 -0.04671934 11.41950842 -0.07775301 13.71679688 -0.109375 C28.36758215 -0.21467004 41.90123357 1.6916733 55.22265625 8.203125 C56.12242187 8.62207031 57.0221875 9.04101562 57.94921875 9.47265625 C76.56829257 18.78219316 91.98310862 36.06503425 99.09765625 55.515625 C99.82847836 57.7375204 100.53986234 59.9660035 101.22265625 62.203125 C101.45726562 62.95335937 101.691875 63.70359375 101.93359375 64.4765625 C103.95938384 71.66958528 104.28288303 79.31004201 104.2578125 86.74609375 C104.26361328 87.67615234 104.26941406 88.60621094 104.27539062 89.56445312 C104.28183392 91.42914171 104.26156415 93.29413877 104.21289062 95.15820312 C104.3155097 101.64105178 106.03230994 105.96342817 109.23046875 111.515625 C114.36311726 120.74870215 114.34070204 129.65103455 114.10083008 140.01977539 C114.03544098 143.00263644 114.03923465 145.97945198 114.05273438 148.96289062 C113.97920081 164.62133269 111.9268742 180.49758647 103.91015625 194.265625 C103.52190674 194.96131592 103.13365723 195.65700684 102.73364258 196.3737793 C99.43787609 202.13482477 95.74055591 207.3279222 91.22265625 212.203125 C90.77519043 212.68620117 90.32772461 213.16927734 89.86669922 213.66699219 C72.92246868 231.76123236 50.0701225 244.47262129 24.85644531 245.41015625 C20.74867951 245.51245795 16.64258133 245.52941104 12.53369141 245.51879883 C9.99077066 245.51564745 7.4490272 245.53914819 4.90625 245.56445312 C-19.37996058 245.65903741 -42.01488743 239.30924789 -60.77734375 223.203125 C-61.59976563 222.51347656 -62.4221875 221.82382812 -63.26953125 221.11328125 C-82.88638745 204.14976883 -93.24512253 181.21710687 -95.17749023 155.55395508 C-95.46098899 150.7919153 -95.56134253 146.03538426 -95.58984375 141.265625 C-95.59813202 140.42674744 -95.60642029 139.58786987 -95.61495972 138.72357178 C-95.65669278 127.80095013 -95.1282387 119.90445351 -88.41870117 110.92651367 C-83.58010799 103.87084539 -83.91518218 96.32343076 -83.90234375 88.078125 C-83.90026917 87.37230286 -83.89819458 86.66648071 -83.89605713 85.93927002 C-83.89278768 84.53958197 -83.88981242 83.13989319 -83.887146 81.74020386 C-83.8411603 60.04045946 -74.94454966 40.9714326 -60.15234375 25.140625 C-43.81969584 9.57506819 -22.69771644 0.14201111 0 0 Z M-35.8359375 56.58984375 C-46.57072201 71.03968448 -44.77734375 84.63291525 -44.77734375 103.203125 C-8.80734375 103.203125 27.16265625 103.203125 64.22265625 103.203125 C64.52009779 74.1896635 64.52009779 74.1896635 50.51171875 51.33984375 C39.44145277 41.00633609 26.608586 37.49300714 11.73193359 37.68164062 C9.72370778 37.70311376 7.71905657 37.68171262 5.7109375 37.65625 C-11.20229922 37.72303475 -24.82129951 43.60478752 -35.8359375 56.58984375 Z M-10.18359375 145.76953125 C-14.78544272 151.74925942 -16.34203796 158.09246074 -16.1484375 165.5859375 C-15.0350713 173.43809915 -10.6575903 178.94747196 -4.7421875 183.92578125 C-2.7158904 185.24307578 -1.11214647 185.68053487 1.22265625 186.203125 C1.2069458 186.93426514 1.19123535 187.66540527 1.17504883 188.41870117 C1.11255274 191.7425966 1.07361873 195.0663682 1.03515625 198.390625 C1.01001953 199.54111328 0.98488281 200.69160156 0.95898438 201.87695312 C0.94931641 202.98876953 0.93964844 204.10058594 0.9296875 205.24609375 C0.91397705 206.26727295 0.8982666 207.28845215 0.88208008 208.34057617 C1.27747762 211.66389959 2.25475428 213.52054658 4.22265625 216.203125 C6.50991848 217.34675612 8.05118052 217.46814432 10.59765625 217.578125 C11.75394531 217.65160156 11.75394531 217.65160156 12.93359375 217.7265625 C16.36733223 216.94137316 17.30332118 215.07916033 19.22265625 212.203125 C19.85522795 209.3194398 19.85522795 209.3194398 19.83203125 206.24609375 C19.86425781 205.13427734 19.89648438 204.02246094 19.9296875 202.87695312 C19.94386719 201.72646484 19.95804688 200.57597656 19.97265625 199.390625 C20.01712891 197.63588867 20.01712891 197.63588867 20.0625 195.84570312 C20.13305334 192.96477491 20.18582354 190.08464922 20.22265625 187.203125 C20.76172607 186.95788086 21.3007959 186.71263672 21.85620117 186.45996094 C29.13379296 183.01410968 32.94428568 178.65387964 36.09765625 171.203125 C38.7642595 162.99573536 36.96190973 156.70759899 33.22265625 149.203125 C29.59007882 143.36505412 24.03670353 140.25839273 17.72265625 137.890625 C7.66361223 135.91474135 -3.03093989 137.80226959 -10.18359375 145.76953125 Z " fill="#02AFF0" transform="translate(243.77734375,275.796875)"/>
<path d="M0 0 C26.48050412 22.58324202 39.95290814 53.15611676 42.97265625 87.53515625 C43.09634701 90.44090095 43.10411738 93.34013426 43.09291077 96.2481842 C43.0941924 97.49090998 43.0941924 97.49090998 43.09549993 98.75874132 C43.0971346 101.50853576 43.09166663 104.25826791 43.08618164 107.00805664 C43.08589931 108.98965453 43.0860584 110.97125252 43.08662415 112.95285034 C43.08691032 118.31372589 43.08104266 123.67457893 43.07405019 129.03544927 C43.0677867 134.64484241 43.06721048 140.2542361 43.06602478 145.8636322 C43.06292029 156.47750284 43.0547188 167.09136313 43.04467529 177.70522922 C43.03348675 189.79226824 43.0279968 201.87930776 43.02297986 213.96635067 C43.01253544 238.82262512 42.99475098 263.67888967 42.97265625 288.53515625 C33.07265625 288.53515625 23.17265625 288.53515625 12.97265625 288.53515625 C12.9645694 286.23459763 12.95648254 283.934039 12.94815063 281.56376648 C12.87084623 259.8338865 12.78283947 238.10406837 12.68512917 216.37427044 C12.63515511 205.2040358 12.58871134 194.03380795 12.55078125 182.86352539 C12.5176855 173.11964494 12.4777593 163.37581962 12.42986619 153.63200027 C12.40477469 148.47989127 12.38294373 143.32781802 12.36931229 138.1756649 C12.35633251 133.31080307 12.33411283 128.44606495 12.30527306 123.58127213 C12.29631993 121.81061594 12.29053639 120.0399399 12.28844261 118.26926231 C12.2418923 84.83510828 7.34672668 53.32304791 -17.02734375 28.53515625 C-17.71441406 27.83519531 -18.40148437 27.13523437 -19.109375 26.4140625 C-36.48773362 9.87399205 -60.44390729 4.119814 -83.77734375 4.22265625 C-84.44131165 4.2248114 -85.10527954 4.22696655 -85.78936768 4.22918701 C-111.68491068 4.36417749 -132.7670177 12.5018047 -153.02734375 28.53515625 C-153.68605469 29.03789062 -154.34476563 29.540625 -155.0234375 30.05859375 C-174.51956412 45.63748477 -185.84038504 72.02117991 -188.81114471 96.33676147 C-189.15092994 99.79182804 -189.18082438 103.24227868 -189.18556213 106.71032715 C-189.19050011 107.4930375 -189.19543809 108.27574784 -189.2005257 109.08217669 C-189.21578172 111.68303769 -189.22422875 114.28387426 -189.23266602 116.88476562 C-189.24225392 118.75784517 -189.25226452 120.63092259 -189.26266479 122.5039978 C-189.28962114 127.57359669 -189.31068071 132.6432048 -189.33066678 137.71283531 C-189.35258373 143.01662232 -189.37994441 148.32038121 -189.40672302 153.62414551 C-189.45657288 163.6607488 -189.50154021 173.69736778 -189.54474539 183.73400164 C-189.59418375 195.16325069 -189.64907735 206.59247151 -189.70442498 218.02169323 C-189.81812667 241.52615474 -189.9247978 265.03064365 -190.02734375 288.53515625 C-200.25734375 288.53515625 -210.48734375 288.53515625 -221.02734375 288.53515625 C-221.02734375 187.55515625 -221.02734375 86.57515625 -221.02734375 -17.46484375 C-210.79734375 -17.46484375 -200.56734375 -17.46484375 -190.02734375 -17.46484375 C-189.69734375 -0.30484375 -189.36734375 16.85515625 -189.02734375 34.53515625 C-185.72734375 29.91515625 -182.42734375 25.29515625 -179.02734375 20.53515625 C-176.07384176 17.10270799 -173.14693366 13.79784661 -170.02734375 10.53515625 C-169.41761719 9.86226563 -168.80789063 9.189375 -168.1796875 8.49609375 C-158.05803516 -2.29173953 -145.37827109 -9.45257478 -132.02734375 -15.46484375 C-130.44373047 -16.18994141 -130.44373047 -16.18994141 -128.828125 -16.9296875 C-88.78164469 -33.79945961 -34.07377945 -26.73622264 0 0 Z " fill="#343434" transform="translate(757.02734375,274.46484375)"/>
<path d="M0 0 C11.55 0 23.1 0 35 0 C40 10 40 10 41 15 C39.890625 17.76171875 39.890625 17.76171875 38.25 20.6875 C35.42207038 26.04153844 33.34527619 31.09845991 32 37 C31.83371094 37.70253906 31.66742187 38.40507812 31.49609375 39.12890625 C29.9218049 48.12720989 32.1150137 57.84171943 37.1875 65.375 C38.41981823 66.94762368 39.69068928 68.49087479 41 70 C41.93199219 71.07894531 41.93199219 71.07894531 42.8828125 72.1796875 C48.20627407 77.89109364 54.54575997 82.51525332 62 85 C62.95970703 84.96737061 63.91941406 84.93474121 64.90820312 84.90112305 C68.54796259 84.8181378 71.49245434 84.99822695 75 86 C78.29044109 89.43090568 79.77523011 93.42911192 81.5 97.8125 C82.02791056 99.03883162 82.56122839 100.26284801 83.09960938 101.48461914 C84.2161448 104.03436854 85.30519521 106.59339244 86.375 109.16308594 C88.89461917 115.1740584 91.72226513 121.04279359 94.5 126.9375 C95.58681954 129.28154065 96.67144778 131.62659851 97.75390625 133.97265625 C100.97320295 140.94409208 104.20351798 147.910366 107.4375 154.875 C107.97189697 156.02621338 108.50629395 157.17742676 109.05688477 158.36352539 C114.76527187 170.65634343 120.49890032 182.93735009 126.23388672 195.21777344 C127.99117103 198.98083466 129.74766374 202.74426497 131.50390625 206.5078125 C131.93727295 207.43648888 131.93727295 207.43648888 132.37939453 208.38392639 C133.8296693 211.49183508 135.27985369 214.59978593 136.72998047 217.70776367 C139.43711022 223.50956645 142.14494776 229.31103545 144.8553772 235.11129761 C146.12058706 237.81893752 147.38538145 240.52677142 148.65014648 243.23461914 C149.24694533 244.51205932 149.84394249 245.78940687 150.44116211 247.06665039 C154.00608539 254.69091726 157.53571877 262.32943978 161 270 C166.39777277 258.92795992 170.88388692 247.50721993 175.42300415 236.06466675 C177.60327055 230.56939557 179.79366557 225.07816282 181.98344994 219.58667946 C182.75586912 217.64934192 183.52789033 215.71184611 184.29988098 213.77433777 C189.67372881 200.29140559 195.09943186 186.82949303 200.53235245 173.3702774 C201.57940708 170.77625077 202.62615628 168.18210094 203.67292118 165.58795738 C205.52393459 161.00072433 207.3751287 156.41356425 209.22673035 151.8265686 C212.93061327 142.65085666 216.63214981 133.47420115 220.33203125 124.296875 C220.59266483 123.65039946 220.85329842 123.00392391 221.12182999 122.3378582 C222.43439125 119.08217103 223.74692534 115.8264729 225.05944824 112.57077026 C231.57226454 96.41591663 238.08637042 80.26158473 244.60604858 64.10949898 C245.39787365 62.1477932 246.18966404 60.18607343 246.98144531 58.22434998 C249.45092319 52.10602481 251.92071647 45.98782726 254.39111328 39.86987305 C255.2828872 37.6606484 256.1746518 35.45142 257.06640625 33.2421875 C257.48833252 32.19764908 257.91025879 31.15311066 258.3449707 30.07691956 C260.3731649 25.05153762 262.3916371 20.02262327 264.39013672 14.98535156 C264.76259018 14.04789093 265.13504364 13.1104303 265.51878357 12.14456177 C266.21466781 10.39081809 266.90836594 8.63620482 267.59950256 6.88058472 C269.88946055 1.11053945 269.88946055 1.11053945 271 0 C273.44830426 -0.08843793 275.86820599 -0.11528752 278.31640625 -0.09765625 C279.04746078 -0.0962413 279.77851532 -0.09482635 280.53172302 -0.09336853 C282.87535632 -0.08775408 285.21889539 -0.07519922 287.5625 -0.0625 C289.14778508 -0.05748686 290.73307166 -0.05292363 292.31835938 -0.04882812 C296.2122761 -0.03777997 300.10612205 -0.02050572 304 0 C303.32684168 4.24715356 301.9195956 7.89432999 300.25390625 11.8515625 C299.97182312 12.52542999 299.68973999 13.19929749 299.39910889 13.89358521 C298.45788168 16.13922605 297.51014007 18.38205865 296.5625 20.625 C295.8871563 22.23320634 295.21228101 23.84160945 294.5378418 25.45019531 C293.10113924 28.87501378 291.66189471 32.29874787 290.22070312 35.72167969 C286.94347457 43.50734293 283.68483109 51.30078427 280.42428589 59.09344482 C279.29907627 61.78207531 278.17318306 64.47041863 277.04711914 67.15869141 C271.34821266 80.76558811 265.67071603 94.38133404 260 108 C251.43066391 128.57891359 242.83138042 149.14514942 234.21777344 169.70556641 C230.85247992 177.73881778 227.48986792 185.77319169 224.12701416 193.8074646 C222.25144886 198.28835414 220.37571609 202.76917358 218.5 207.25 C217.74999919 209.04166633 216.99999919 210.833333 216.25 212.625 C211.75 223.37499999 211.75 223.37499999 210.62512207 226.06219482 C209.87470229 227.85487335 209.1242954 229.64755728 208.37390137 231.44024658 C206.50542943 235.90397601 204.63673761 240.36761312 202.76757812 244.83105469 C198.91297229 254.03633183 195.06263279 263.24336466 191.21875 272.453125 C168.19844471 327.59623186 168.19844471 327.59623186 160 343 C159.67821777 343.60634277 159.35643555 344.21268555 159.02490234 344.83740234 C145.85862141 369.38259738 127.15337126 390.46406503 100.4375 399.96875 C70.90680812 408.82795756 36.41010848 404.91225808 9 391 C10.73348349 386.3427077 12.47521531 381.68868476 14.23046875 377.03955078 C14.89584518 375.27604992 15.55763154 373.51119529 16.21875 371.74609375 C16.5590625 370.86050781 16.899375 369.97492188 17.25 369.0625 C17.69085937 367.90427734 17.69085937 367.90427734 18.140625 366.72265625 C19 365 19 365 21 364 C23.19329263 364.82851026 25.35497006 365.74102846 27.5 366.6875 C47.31683563 374.85845666 72.56509213 378.71636907 93.17578125 371.3203125 C119.1389801 359.18260681 132.0775186 333.68569577 143.98828125 309.03125 C145.61275955 304.16408722 144.01874933 300.67008109 141.83984375 296.203125 C141.15631836 294.79063477 141.15631836 294.79063477 140.45898438 293.34960938 C139.95689453 292.32673828 139.45480469 291.30386719 138.9375 290.25 C138.41091797 289.16525391 137.88433594 288.08050781 137.34179688 286.96289062 C136.18581925 284.58277947 135.0278512 282.20375199 133.86669922 279.82617188 C131.92600663 275.85116972 129.9953597 271.87133452 128.06640625 267.890625 C127.73389359 267.2044812 127.40138092 266.5183374 127.05879211 265.81140137 C126.3809648 264.4126871 125.70315422 263.01396473 125.02536011 261.61523438 C123.99417274 259.48797884 122.96217309 257.36111922 121.92993164 255.234375 C117.40711226 245.91469921 112.90997776 236.58306229 108.43310547 227.24121094 C104.67679651 219.40448952 100.90456988 211.57552283 97.125 203.75 C96.8325238 203.14442261 96.54004761 202.53884521 96.2387085 201.91491699 C94.75338281 198.83968105 93.26785006 195.7645452 91.78222656 192.68945312 C89.14464992 187.22968751 86.5088792 181.7690501 83.87298584 176.30847168 C82.41539916 173.28894478 80.95769351 170.26947532 79.5 167.25 C78.9166661 166.04166694 78.33333276 164.83333361 77.75 163.625 C77.46125 163.026875 77.1725 162.42875 76.875 161.8125 C46.25000001 98.37500002 46.25000001 98.37500002 45.37503052 96.56256104 C44.79159773 95.35402315 44.20816268 94.14548637 43.62472534 92.93695068 C42.16789493 89.91925595 40.71110387 86.90154224 39.25439453 83.88378906 C36.31370278 77.7918936 33.37231578 71.7003353 30.4296875 65.609375 C23.37699478 51.01002853 16.32643095 36.40963571 9.33105469 21.78271484 C8.45776689 19.95701157 7.58345241 18.13179896 6.70800781 16.30712891 C5.55128699 13.89415974 4.39970758 11.47881688 3.25 9.0625 C2.91436035 8.36415039 2.5787207 7.66580078 2.23291016 6.94628906 C0 2.22982368 0 2.22982368 0 0 Z " fill="#353535" transform="translate(1020,257)"/>
<path d="M0 0 C10.23 0 20.46 0 31 0 C31 144.54 31 289.08 31 438 C20.77 438 10.54 438 0 438 C0 293.46 0 148.92 0 0 Z " fill="#373737" transform="translate(907,125)"/>
<path d="M0 0 C1.32 0.66 2.64 1.32 4 2 C2.65035156 2.38285156 2.65035156 2.38285156 1.2734375 2.7734375 C-2.07103915 4.02661849 -3.79101549 5.20892784 -6.375 7.625 C-7.220625 8.41261719 -8.06625 9.20023437 -8.9375 10.01171875 C-11.34494063 12.33656716 -13.70560311 14.70603913 -16.0625 17.08203125 C-16.7735791 17.79858887 -17.4846582 18.51514648 -18.21728516 19.25341797 C-19.63963281 20.69314665 -21.05613703 22.13867515 -22.46630859 23.59033203 C-23.12453613 24.2604834 -23.78276367 24.93063477 -24.4609375 25.62109375 C-25.04665527 26.2236499 -25.63237305 26.82620605 -26.23583984 27.44702148 C-28.057519 29.0506336 -29.78962062 30.0198002 -32 31 C-29.81935264 26.24031778 -26.53110834 22.81333448 -23 19 C-22.26523438 18.19949219 -21.53046875 17.39898437 -20.7734375 16.57421875 C-14.46847646 9.97146639 -7.61565243 4.94181835 0 0 Z " fill="#73D3F6" transform="translate(1887,339)"/>
<path d="M0 0 C1.32 0.66 2.64 1.32 4 2 C3.113125 2.226875 2.22625 2.45375 1.3125 2.6875 C-2.16715868 3.80582308 -2.16715868 3.80582308 -4.625 6.6875 C-5.800625 7.8321875 -5.800625 7.8321875 -7 9 C-8.32 8.67 -9.64 8.34 -11 8 C-7.37 5.36 -3.74 2.72 0 0 Z " fill="#BCEAFB" transform="translate(1887,339)"/>
<path d="M0 0 C3.90740446 3.75915605 3.90740446 3.75915605 4 7 C2.0625 10.25 2.0625 10.25 0 13 C-0.33 12.34 -0.66 11.68 -1 11 C-0.67 10.34 -0.34 9.68 0 9 C0.06950541 7.45976004 0.08452357 5.91665012 0.0625 4.375 C0.05347656 3.55773437 0.04445313 2.74046875 0.03515625 1.8984375 C0.02355469 1.27195312 0.01195312 0.64546875 0 0 Z " fill="#B6E8FA" transform="translate(1809,279)"/>
<path d="M0 0 C0.99 0.495 0.99 0.495 2 1 C2 1.66 2 2.32 2 3 C2.969375 3.28875 3.93875 3.5775 4.9375 3.875 C8 5 8 5 9 7 C2.25 6.25 2.25 6.25 0 4 C0 2.68 0 1.36 0 0 Z " fill="#BCEAFB" transform="translate(1779,262)"/>
<path d="M0 0 C2 1 2 1 2 1 Z " fill="#FDFEFF" transform="translate(1807,263)"/>
</svg>
