<?xml version="1.0" encoding="UTF-8"?>
<svg version="1.1" xmlns="http://www.w3.org/2000/svg" width="1113" height="1113">
<path d="M0 0 C3.28752978 2.53920262 6.61693048 5.02239918 9.94775391 7.50439453 C10.45822266 6.84955078 10.96869141 6.19470703 11.49462891 5.52001953 C20.52816385 -5.81994987 30.51376797 -15.56921093 41.94775391 -24.49560547 C42.95451172 -25.30771484 43.96126953 -26.11982422 44.99853516 -26.95654297 C114.31742524 -82.36035521 215.41231233 -80.40190633 330.33702207 -80.59699941 C336.5054368 -80.59062101 342.67385238 -80.5901509 348.8422699 -80.588974 C360.45026322 -80.58590239 372.05824678 -80.57774707 383.66623586 -80.56762451 C396.91239926 -80.55633149 410.15856198 -80.55092017 423.40472901 -80.54592907 C450.58574265 -80.53555946 477.76674773 -80.5180435 504.94775391 -80.49560547 C504.79855431 -78.89705261 504.64632186 -77.29878263 504.49281311 -75.70063782 C504.40836473 -74.81057195 504.32391634 -73.92050608 504.23690891 -73.00346851 C503.89213996 -70.01326155 503.23315901 -67.23660671 502.38134766 -64.35107422 C502.06512451 -63.27317627 501.74890137 -62.19527832 501.4230957 -61.0847168 C500.90936401 -59.40091919 500.90936401 -59.40091919 500.38525391 -57.68310547 C499.84735229 -55.90359497 499.84735229 -55.90359497 499.29858398 -54.08813477 C485.09285344 -7.87990343 461.65945538 34.43117364 429.05322266 70.18017578 C427.20797835 72.21713378 425.41693721 74.287103 423.63525391 76.37939453 C420.55720046 79.9084186 417.31162586 83.24851317 414.01025391 86.56689453 C413.53225342 87.0494873 413.05425293 87.53208008 412.56176758 88.02929688 C408.52408487 92.05002877 404.27057253 95.79418577 399.94775391 99.50439453 C399.31812744 100.04604248 398.68850098 100.58769043 398.03979492 101.14575195 C339.68617335 150.96165869 264.97464855 182.21487192 189.94775391 196.50439453 C250.42758174 210.49705002 312.78849872 209.13565911 373.53662109 197.0793457 C374.57334961 196.87414307 375.61007812 196.66894043 376.67822266 196.45751953 C378.03016724 196.18149902 378.03016724 196.18149902 379.40942383 195.89990234 C381.96547468 195.50163338 384.36539813 195.4335257 386.94775391 195.50439453 C386.31135775 203.17971792 384.22420838 210.38288123 382.07275391 217.75439453 C381.87589996 218.43124298 381.67904602 219.10809143 381.47622681 219.80545044 C368.39775624 264.4370617 346.61163548 305.63269606 315.18603516 340.04345703 C313.70791345 341.66861702 312.2464813 343.30913359 310.80322266 344.96533203 C292.80947153 365.52035584 269.65677958 382.14686749 245.94775391 395.50439453 C245.26616211 395.89304687 244.58457031 396.28169922 243.88232422 396.68212891 C207.32468694 417.34875863 166.57915433 428.19412631 125.19775391 433.74267578 C124.14966553 433.88970947 123.10157715 434.03674316 122.02172852 434.18823242 C118.94775391 434.50439453 118.94775391 434.50439453 115.90698242 434.42797852 C112.936181 434.39413109 110.74123853 434.47977175 107.94775391 435.50439453 C105.02053254 438.92812099 103.53406377 442.78349021 101.88525391 446.94189453 C100.87235889 449.25356128 99.85540389 451.56345316 98.83447266 453.87158203 C98.3451123 455.00950195 97.85575195 456.14742187 97.3515625 457.31982422 C86.41575967 482.12793067 69.23368349 504.81195439 51.94775391 525.50439453 C51.13564453 526.50341797 50.32353516 527.50244141 49.48681641 528.53173828 C43.03544035 536.36334803 36.03767408 543.62793542 28.88525391 550.81689453 C27.97557861 551.73575439 27.06590332 552.65461426 26.12866211 553.60131836 C20.78414165 558.9218185 15.26620181 563.84177761 9.37915039 568.55444336 C7.45492967 570.09764558 5.57916302 571.66324496 3.73291016 573.29736328 C-50.92303621 621.36636633 -124.36028009 648.34015588 -196.05224609 655.50439453 C-196.99970703 655.60010742 -197.94716797 655.69582031 -198.92333984 655.79443359 C-209.07957666 656.70031277 -219.23822639 656.74781802 -229.42724609 656.75439453 C-230.37221954 656.75506927 -231.31719299 656.75574402 -232.290802 656.75643921 C-286.61653024 656.69523518 -340.00158055 645.0872005 -389.05224609 621.50439453 C-389.89851562 621.10704102 -390.74478516 620.7096875 -391.61669922 620.30029297 C-412.7366105 610.36564928 -432.97866825 598.42895975 -451.28173828 583.90576172 C-453.10126064 582.46559924 -454.93764389 581.04956784 -456.77880859 579.63720703 C-462.92425403 574.9014841 -468.87203198 570.03811956 -474.57568359 564.77001953 C-476.60628743 562.91236933 -478.66627283 561.11197964 -480.75146484 559.31689453 C-485.52144567 555.15234291 -490.01568857 550.73293688 -494.48974609 546.25439453 C-495.33085937 545.41247559 -496.17197266 544.57055664 -497.03857422 543.703125 C-502.00650768 538.68589881 -506.7064884 533.64800218 -511.04052734 528.07080078 C-512.90829373 525.68803862 -514.86720824 523.41338347 -516.86621094 521.140625 C-577.57121987 451.58774772 -603.98314882 353.97883271 -598.53662109 263.16845703 C-595.45869013 219.15404428 -584.75546274 176.88544453 -567.05224609 136.50439453 C-566.64393555 135.57191895 -566.235625 134.63944336 -565.81494141 133.67871094 C-556.19146025 112.00026301 -543.89121535 91.73528239 -530.05224609 72.50439453 C-529.54983398 71.80378906 -529.04742188 71.10318359 -528.52978516 70.38134766 C-521.23910548 60.27780328 -513.40299718 50.74741116 -505.05224609 41.50439453 C-504.47104004 40.86002441 -503.88983398 40.2156543 -503.29101562 39.55175781 C-490.57154343 25.53304042 -477.07368527 12.0637136 -462.05224609 0.50439453 C-461.36356445 -0.02976074 -460.67488281 -0.56391602 -459.96533203 -1.11425781 C-401.86328384 -46.03789348 -334.25178383 -72.94431862 -261.05224609 -79.49560547 C-259.89958252 -79.60146973 -259.89958252 -79.60146973 -258.72363281 -79.70947266 C-165.48152841 -87.85495809 -73.2243874 -57.05771778 0 0 Z M-310.65258789 213.73852539 C-330.60269424 234.49989958 -340.18942377 263.06090251 -340.05224609 291.50439453 C-338.80766333 321.27663883 -325.52879394 349.00026626 -304.02490234 369.44580078 C-282.398904 389.09597389 -253.33113292 398.62404 -224.37841797 397.640625 C-201.15158049 396.28036311 -178.85183532 387.41821929 -161.05224609 372.50439453 C-160.04419922 371.66005859 -159.03615234 370.81572266 -157.99755859 369.94580078 C-138.474033 353.06979531 -126.24664332 329.87210895 -122.05224609 304.50439453 C-121.71193359 302.58626953 -121.71193359 302.58626953 -121.36474609 300.62939453 C-118.91696938 276.76357155 -124.43305351 254.26156804 -136.05224609 233.50439453 C-136.60783203 232.50666016 -137.16341797 231.50892578 -137.73583984 230.48095703 C-142.24337052 222.93597762 -147.98671242 216.79625409 -154.05224609 210.50439453 C-154.94556641 209.51632812 -154.94556641 209.51632812 -155.85693359 208.50830078 C-168.91547537 194.44275703 -187.8586175 186.36393051 -206.05224609 181.50439453 C-206.91978516 181.26978516 -207.78732422 181.03517578 -208.68115234 180.79345703 C-246.22624803 172.0265819 -284.21054959 187.14536574 -310.65258789 213.73852539 Z " fill="#008CCF" transform="translate(602.05224609375,292.49560546875)"/>
<path d="M0 0 C1.3834448 1.06021328 2.79024651 2.0902514 4.21191406 3.09863281 C4.94587402 3.62183105 5.67983398 4.1450293 6.43603516 4.68408203 C7.10803955 5.15144775 7.78004395 5.61881348 8.47241211 6.1003418 C9.2027063 6.78954712 9.2027063 6.78954712 9.94775391 7.49267578 C9.94775391 8.48267578 9.94775391 9.47267578 9.94775391 10.49267578 C9.28775391 10.49267578 8.62775391 10.49267578 7.94775391 10.49267578 C7.72861328 11.00701172 7.50947266 11.52134766 7.28369141 12.05126953 C5.39806084 15.49723182 2.97609149 18.45631534 0.57275391 21.55517578 C-14.9960788 42.0175414 -27.52442165 64.78584684 -38.75732422 87.85986328 C-40.28573578 90.96740292 -41.85290806 94.05454446 -43.41552734 97.14501953 C-47.12912956 104.5426123 -50.58248521 112.04729216 -53.92724609 119.61767578 C-54.24250244 120.33076904 -54.55775879 121.0438623 -54.88256836 121.77856445 C-77.58504855 173.35053446 -95.07242088 227.0864834 -112.74755859 280.53027344 C-115.83264425 289.85656857 -118.94062712 299.17520582 -122.05224609 308.49267578 C-123.04659601 305.10452051 -122.81084684 302.63086265 -122.31787109 299.14111328 C-119.97752081 275.80644427 -125.71077478 253.75371251 -137.05224609 233.49267578 C-137.60783203 232.49494141 -138.16341797 231.49720703 -138.73583984 230.46923828 C-154.21912962 204.55236475 -180.26897455 189.48280718 -208.68896484 181.77783203 C-235.41896333 175.56049792 -264.79458137 181.65960233 -287.92724609 195.93017578 C-313.39945559 213.07639441 -330.95905331 237.65202749 -337.30224609 267.80517578 C-341.89209321 297.59504887 -335.87113428 327.08688364 -318.29101562 351.8046875 C-300.49998802 376.04732937 -274.7687432 391.12134975 -245.04296875 395.80957031 C-217.72876438 399.52547205 -189.01148388 392.40424372 -166.73974609 376.11767578 C-164.8251025 374.59943336 -162.92878688 373.05776837 -161.05224609 371.49267578 C-159.65039062 370.33638672 -159.65039062 370.33638672 -158.22021484 369.15673828 C-148.14601396 360.44924717 -140.50595255 350.11459433 -134.05224609 338.49267578 C-131.55227132 346.54740133 -136.42338725 356.09709802 -138.92724609 363.74267578 C-139.65301745 365.98339577 -140.37828433 368.22427922 -141.10302734 370.46533203 C-141.61663818 372.04918701 -141.61663818 372.04918701 -142.140625 373.66503906 C-143.16046511 376.82834601 -144.14770561 380.00034397 -145.11474609 383.18017578 C-147.15172166 389.87050885 -149.28396999 396.53007493 -151.41577148 403.19067383 C-152.92623138 407.91867633 -154.41255974 412.6526815 -155.86474609 417.39892578 C-158.97124965 427.5264865 -162.20585004 437.61393001 -165.41601562 447.70898438 C-168.37144862 457.0054089 -171.31729207 466.30318505 -174.17138672 475.63134766 C-175.87230815 481.15651374 -177.64493592 486.65888509 -179.40771484 492.16455078 C-180.92048782 496.90137837 -182.4098937 501.64396797 -183.86474609 506.39892578 C-186.97124965 516.5264865 -190.20585004 526.61393001 -193.41601562 536.70898438 C-194.26398796 539.37631294 -195.11125326 542.04386543 -195.95849609 544.71142578 C-196.20966187 545.50037231 -196.46082764 546.28931885 -196.71960449 547.10217285 C-198.1365162 551.56360804 -199.52781433 556.03206003 -200.8996582 560.50756836 C-203.1685155 567.89678564 -205.49603322 575.26697884 -207.82817268 582.63640404 C-208.60694208 585.09739204 -209.38502879 587.55859501 -210.16294861 590.01985168 C-212.37162081 597.00742434 -214.58154492 603.9946009 -216.79174805 610.98168945 C-218.15211317 615.28235611 -219.51176099 619.58324903 -220.87100029 623.88427162 C-221.38458708 625.50888228 -221.89845224 627.13340496 -222.41261482 628.75783348 C-225.01686493 636.98562655 -227.61595226 645.21313516 -230.05224609 653.49267578 C-181.07750729 654.76029294 -132.025 644.94284968 -87.15576172 625.2487793 C-86.285 624.87551514 -85.41423828 624.50225098 -84.51708984 624.11767578 C-83.75001709 623.77994141 -82.98294434 623.44220703 -82.19262695 623.09423828 C-79.74100476 622.40520017 -78.42745885 622.66241273 -76.05224609 623.49267578 C-114.60336962 640.35592052 -154.1275745 651.30310798 -196.05224609 655.49267578 C-196.99970703 655.58838867 -197.94716797 655.68410156 -198.92333984 655.78271484 C-209.07957666 656.68859402 -219.23822639 656.73609927 -229.42724609 656.74267578 C-230.37221954 656.74335052 -231.31719299 656.74402527 -232.290802 656.74472046 C-286.61653024 656.68351643 -340.00158055 645.07548175 -389.05224609 621.49267578 C-389.89851562 621.09532227 -390.74478516 620.69796875 -391.61669922 620.28857422 C-412.7366105 610.35393053 -432.97866825 598.417241 -451.28173828 583.89404297 C-453.10126064 582.45388049 -454.93764389 581.03784909 -456.77880859 579.62548828 C-462.92425403 574.88976535 -468.87203198 570.02640081 -474.57568359 564.75830078 C-476.60628743 562.90065058 -478.66627283 561.10026089 -480.75146484 559.30517578 C-485.52144567 555.14062416 -490.01568857 550.72121813 -494.48974609 546.24267578 C-495.33085937 545.40075684 -496.17197266 544.55883789 -497.03857422 543.69140625 C-502.00650768 538.67418006 -506.7064884 533.63628343 -511.04052734 528.05908203 C-512.90829373 525.67631987 -514.86720824 523.40166472 -516.86621094 521.12890625 C-577.57121987 451.57602897 -603.98314882 353.96711396 -598.53662109 263.15673828 C-595.45869013 219.14232553 -584.75546274 176.87372578 -567.05224609 136.49267578 C-566.64393555 135.5602002 -566.235625 134.62772461 -565.81494141 133.66699219 C-556.19146025 111.98854426 -543.89121535 91.72356364 -530.05224609 72.49267578 C-529.54983398 71.79207031 -529.04742188 71.09146484 -528.52978516 70.36962891 C-521.23910548 60.26608453 -513.40299718 50.73569241 -505.05224609 41.49267578 C-504.47104004 40.84830566 -503.88983398 40.20393555 -503.29101562 39.54003906 C-490.57154343 25.52132167 -477.07368527 12.05199485 -462.05224609 0.49267578 C-461.36356445 -0.04147949 -460.67488281 -0.57563477 -459.96533203 -1.12597656 C-401.86328384 -46.04961223 -334.25178383 -72.95603737 -261.05224609 -79.50732422 C-259.89958252 -79.61318848 -259.89958252 -79.61318848 -258.72363281 -79.72119141 C-165.71642383 -87.84615674 -72.90272101 -57.26046836 0 0 Z " fill="#01AEEE" transform="translate(602.05224609375,292.50732421875)"/>
<path d="M0 0 C73.92 0 147.84 0 224 0 C222.87322591 11.26774095 222.87322591 11.26774095 221.43359375 16.14453125 C221.11737061 17.2224292 220.80114746 18.30032715 220.4753418 19.41088867 C220.132854 20.53342041 219.79036621 21.65595215 219.4375 22.8125 C219.07889893 23.99884033 218.72029785 25.18518066 218.35083008 26.4074707 C204.14509953 72.61570204 180.71170147 114.92677911 148.10546875 150.67578125 C146.26022445 152.71273925 144.4691833 154.78270847 142.6875 156.875 C132.88383086 168.11502067 121.84915454 177.9759911 110 187 C110 186.01 110 185.02 110 184 C112.16015625 181.984375 112.16015625 181.984375 115.0625 179.75 C119.08754793 176.56907977 122.78873871 173.34541266 126.34375 169.65625 C128.04933908 167.95066092 129.83739651 166.42180784 131.6875 164.875 C137.62439879 159.74038483 142.79077273 153.85511074 148 148 C148.45777832 147.48695313 148.91555664 146.97390625 149.38720703 146.4453125 C186.70425648 104.31183948 207.70040149 54.54859477 223 1 C149.41 1 75.82 1 0 1 C0 0.67 0 0.34 0 0 Z " fill="#DAE8EF" transform="translate(883,212)"/>
<path d="M0 0 C-20.29898927 7.96566715 -40.60572186 14.58686844 -61.9375 19.1875 C-63.72631592 19.58171143 -63.72631592 19.58171143 -65.55126953 19.98388672 C-72.36787687 21.38436181 -78.81922974 22.17750454 -85.7578125 22.3828125 C-100.13159125 22.33851545 -100.13159125 22.33851545 -112.45214844 28.32666016 C-116.55152736 34.32763256 -118.78845235 40.97221562 -120.95068359 47.86376953 C-122.41198159 52.23134375 -124.44513957 56.09039232 -126.75 60.0625 C-127.1404248 60.75698242 -127.53084961 61.45146484 -127.93310547 62.16699219 C-138.85798613 81.25205457 -151.91959411 99.144791 -166 116 C-166.81210937 116.99902344 -167.62421875 117.99804688 -168.4609375 119.02734375 C-174.91231355 126.8589535 -181.91007982 134.12354089 -189.0625 141.3125 C-189.97217529 142.23135986 -190.88185059 143.15021973 -191.8190918 144.09692383 C-197.90415271 150.15463615 -204.26572018 155.67794733 -211 161 C-212.66704669 162.33285816 -214.3338251 163.6660522 -216 165 C-216 164.01 -216 163.02 -216 162 C-214.15625 160.265625 -214.15625 160.265625 -211.5 158.25 C-197.915227 147.51222988 -185.23370655 135.16977621 -174 122 C-173.22269531 121.11183594 -172.44539062 120.22367188 -171.64453125 119.30859375 C-151.34208683 95.94677172 -134.59472 70.16637409 -120.6875 42.5625 C-120.35274658 41.90717285 -120.01799316 41.2518457 -119.6730957 40.57666016 C-118.18268934 37.60790025 -116.93219341 34.79467688 -115.88671875 31.62890625 C-114.86894556 28.6070237 -114.06285751 26.43577684 -112 24 C-108.12520141 22.57217034 -104.43798977 22.22357862 -100.33081055 22.08227539 C-89.85738488 21.71257345 -79.81911057 20.44726847 -69.5625 18.3125 C-68.91692139 18.17994812 -68.27134277 18.04739624 -67.60620117 17.91082764 C-46.6456185 13.60112108 -25.71120436 8.55874638 -6.1328125 -0.296875 C-3.62470194 -1.12372463 -2.4830702 -0.72355224 0 0 Z " fill="#BFDCE9" transform="translate(820,702)"/>
<path d="M0 0 C-0.63639616 7.67532339 -2.72354552 14.8784867 -4.875 22.25 C-5.07185394 22.92684845 -5.26870789 23.6036969 -5.4715271 24.30105591 C-18.54999767 68.93266717 -40.33611843 110.12830153 -71.76171875 144.5390625 C-73.23984046 146.16422249 -74.70127261 147.80473906 -76.14453125 149.4609375 C-85.96361764 160.67769564 -97.14336971 170.0344806 -109 179 C-109.67659668 179.51224121 -110.35319336 180.02448242 -111.05029297 180.55224609 C-113.11091436 182.10549033 -115.1785006 183.64880034 -117.25 185.1875 C-117.89428955 185.66960937 -118.5385791 186.15171875 -119.20239258 186.6484375 C-123.76471932 190 -123.76471932 190 -126 190 C-126 189.34 -126 188.68 -126 188 C-123.553645 186.17518451 -121.09152897 184.45369782 -118.5625 182.75 C-97.77295446 168.34299955 -78.2925415 151.25563813 -63 131 C-62.20980469 130.00355469 -61.41960937 129.00710938 -60.60546875 127.98046875 C-33.40151993 93.59682346 -16.12255206 53.89394863 -4.75390625 11.78369141 C-3.86801723 8.51267243 -2.94216617 5.25518411 -2 2 C-2.97839844 2.2165625 -3.95679688 2.433125 -4.96484375 2.65625 C-12.04411953 4.17614044 -18.72082811 5.38311431 -26 5 C-26 4.67 -26 4.34 -26 4 C-22.60563644 3.32570033 -19.20929807 2.6619172 -15.8125 2 C-14.85279297 1.80921875 -13.89308594 1.6184375 -12.90429688 1.421875 C-11.97294922 1.24140625 -11.04160156 1.0609375 -10.08203125 0.875 C-9.22843018 0.70742188 -8.3748291 0.53984375 -7.49536133 0.3671875 C-4.95954897 -0.00595229 -2.55918603 -0.06412996 0 0 Z " fill="#D2E7F1" transform="translate(989,488)"/>
<path d="M0 0 C-1.02738281 0.49628906 -2.05476563 0.99257813 -3.11328125 1.50390625 C-16.66504685 8.11408344 -28.25128925 15.34641059 -39 26 C-39.87914062 26.86625 -40.75828125 27.7325 -41.6640625 28.625 C-60.34607619 48.05892136 -70.13491044 75.65251021 -70.03515625 102.4453125 C-69.49216231 123.93570201 -63.37396325 146.83871972 -50 164 C-50.33 164.66 -50.66 165.32 -51 166 C-55.4420678 160.51096111 -58.75351848 154.97379294 -61.6875 148.5625 C-62.06455078 147.76779297 -62.44160156 146.97308594 -62.83007812 146.15429688 C-74.1230495 121.9325485 -75.74864592 92.21742707 -67.04980469 66.88647461 C-59.14398848 45.31825617 -46.29215056 26.995682 -28 13 C-27.19691406 12.38125 -26.39382813 11.7625 -25.56640625 11.125 C-6.57110253 -2.84855676 -6.57110253 -2.84855676 0 0 Z " fill="#DEF1F7" transform="translate(333,479)"/>
<path d="M0 0 C-35.34826436 14.41411954 -71.39953543 26.8386655 -109 34 C-94.39971145 37.37793302 -79.86783607 40.11275146 -65 42 C-65 42.33 -65 42.66 -65 43 C-71.62765445 43.13470842 -77.93963153 42.67236962 -84.5 41.75 C-85.45036133 41.61867676 -86.40072266 41.48735352 -87.37988281 41.35205078 C-108.37617813 38.31191093 -108.37617813 38.31191093 -115 35 C-115 34.34 -115 33.68 -115 33 C-107.10586371 31.00134314 -99.20602785 29.03979097 -91.27685547 27.18432617 C-75.95930492 23.59255659 -60.85587742 19.42822749 -45.88085938 14.60302734 C-44.10602474 14.03399288 -42.32657223 13.47942009 -40.546875 12.92578125 C-34.46552785 10.98274993 -28.54894191 8.84195366 -22.640625 6.42578125 C-21.51648193 5.96647217 -20.39233887 5.50716309 -19.23413086 5.03393555 C-16.97783776 4.10485474 -14.72589342 3.16513186 -12.47875977 2.21411133 C-11.44033936 1.78509521 -10.40191895 1.3560791 -9.33203125 0.9140625 C-8.40108643 0.5217041 -7.4701416 0.1293457 -6.51098633 -0.27490234 C-3.83517033 -1.04759787 -2.57495314 -0.9572625 0 0 Z " fill="#A4CBDE" transform="translate(901,455)"/>
<path d="M0 0 C32.05211827 5.68145567 64.98574203 30.74540563 90.4375 50.0625 C91.17814697 50.62308105 91.91879395 51.18366211 92.68188477 51.76123047 C93.36307373 52.28475098 94.0442627 52.80827148 94.74609375 53.34765625 C95.65379517 54.04387085 95.65379517 54.04387085 96.57983398 54.75415039 C98 56 98 56 99 58 C95.10771822 56.65688868 92.56925074 54.97140232 89.5 52.25 C84.07078108 47.69241078 78.34032974 43.73319106 72.4375 39.8125 C71.56351563 39.23081055 70.68953125 38.64912109 69.7890625 38.04980469 C59.86045852 31.11172376 59.86045852 31.11172376 49 26 C49 25.34 49 24.68 49 24 C48.19949219 23.76925781 47.39898438 23.53851563 46.57421875 23.30078125 C42.07421741 21.66307584 38.01593451 19.4654715 33.8125 17.1875 C26.97302151 13.53364817 20.1168988 10.08658014 13 7 C10.97681661 6.10948685 8.9559687 5.21364861 6.9375 4.3125 C6.03902344 3.91675781 5.14054687 3.52101562 4.21484375 3.11328125 C2 2 2 2 0 0 Z " fill="#B6DDEB" transform="translate(506,238)"/>
<path d="M0 0 C0.495 1.485 0.495 1.485 1 3 C0.06298828 4.65063477 0.06298828 4.65063477 -1.4296875 6.44140625 C-2.24542236 7.43333984 -2.24542236 7.43333984 -3.07763672 8.4453125 C-3.6707666 9.14398438 -4.26389648 9.84265625 -4.875 10.5625 C-5.47199707 11.28050781 -6.06899414 11.99851562 -6.68408203 12.73828125 C-10.69644786 17.53715277 -14.80325401 22.24468158 -19.03515625 26.8515625 C-20.83996444 28.82501082 -22.57951465 30.83863832 -24.3125 32.875 C-34.11616914 44.11502067 -45.15084546 53.9759911 -57 63 C-57 62.01 -57 61.02 -57 60 C-54.83984375 57.984375 -54.83984375 57.984375 -51.9375 55.75 C-47.91245207 52.56907977 -44.21126129 49.34541266 -40.65625 45.65625 C-38.95066092 43.95066092 -37.16260349 42.42180784 -35.3125 40.875 C-21.84595504 29.22825841 -10.17220203 14.54420863 0 0 Z " fill="#D0E5EE" transform="translate(1050,336)"/>
<path d="M0 0 C0.66 0.33 1.32 0.66 2 1 C-5.68462517 9.37648853 -13.49463657 17.61618095 -21.5 25.6875 C-22.25265137 26.45304199 -23.00530273 27.21858398 -23.78076172 28.00732422 C-27.63073299 31.86416891 -31.32085723 35.19399508 -36 38 C-34.66000502 34.993182 -33.20154709 33.00237391 -30.8125 30.75 C-28.28403411 28.29973408 -25.91244124 25.80167949 -23.625 23.125 C-17.81587349 16.40616688 -11.48506699 10.26505707 -4.7265625 4.5078125 C-3.07703058 3.06727105 -1.52920426 1.56673075 0 0 Z " fill="#6BCCF0" transform="translate(129,302)"/>
<path d="M0 0 C-0.55315997 7.40089896 -2.65688149 14.3238081 -4.75585938 21.40869141 C-5.37296154 23.49311458 -5.98018204 25.58022324 -6.5859375 27.66796875 C-8.4953413 34.20546776 -10.4711218 40.66964684 -13 47 C-13.66 47 -14.32 47 -15 47 C-14.83056885 46.44272217 -14.6611377 45.88544434 -14.48657227 45.3112793 C-12.22685608 37.83335812 -10.07674118 30.32564202 -7.9375 22.8125 C-7.58623047 21.58080078 -7.23496094 20.34910156 -6.87304688 19.08007812 C-6.2039933 16.73396399 -5.53519425 14.38777725 -4.86669922 12.04150391 C-3.91276528 8.69386755 -2.95693132 5.34678054 -2 2 C-3.46759766 2.32484375 -3.46759766 2.32484375 -4.96484375 2.65625 C-12.04411953 4.17614044 -18.72082811 5.38311431 -26 5 C-26 4.67 -26 4.34 -26 4 C-22.60563644 3.32570033 -19.20929807 2.6619172 -15.8125 2 C-14.37293945 1.71382813 -14.37293945 1.71382813 -12.90429688 1.421875 C-11.97294922 1.24140625 -11.04160156 1.0609375 -10.08203125 0.875 C-8.80162964 0.62363281 -8.80162964 0.62363281 -7.49536133 0.3671875 C-4.95954897 -0.00595229 -2.55918603 -0.06412996 0 0 Z " fill="#C1DEEB" transform="translate(989,488)"/>
<path d="M0 0 C-1.54107422 0.74443359 -1.54107422 0.74443359 -3.11328125 1.50390625 C-21.6347613 10.53817297 -35.49869911 21.55714035 -49 37 C-49.66 36.67 -50.32 36.34 -51 36 C-43.96609371 27.37026855 -37.00722684 19.65867584 -28 13 C-27.20207031 12.38769531 -26.40414063 11.77539062 -25.58203125 11.14453125 C-6.61866917 -2.86917678 -6.61866917 -2.86917678 0 0 Z " fill="#C8E4EE" transform="translate(333,479)"/>
<path d="M0 0 C0.66 0.33 1.32 0.66 2 1 C-4.15253546 7.86883896 -10.44873795 14.57269272 -16.9375 21.125 C-17.5756665 21.77605713 -18.21383301 22.42711426 -18.87133789 23.09790039 C-19.47969482 23.70754639 -20.08805176 24.31719238 -20.71484375 24.9453125 C-21.25230225 25.48687988 -21.78976074 26.02844727 -22.34350586 26.58642578 C-24.12146451 28.1036521 -25.87578081 29.0423531 -28 30 C-26.69812619 27.16021533 -25.28850513 24.99993836 -23.1640625 22.71484375 C-22.59961426 22.10648682 -22.03516602 21.49812988 -21.45361328 20.87133789 C-20.8501709 20.23317139 -20.24672852 19.59500488 -19.625 18.9375 C-19.00737793 18.27935303 -18.38975586 17.62120605 -17.75341797 16.94311523 C-12.10561463 10.98844454 -6.15569892 5.42287762 0 0 Z " fill="#64B5DC" transform="translate(641,270)"/>
<path d="M0 0 C0.99 0.33 1.98 0.66 3 1 C-7.49021562 9.48022905 -18.61049007 16.79261256 -30 24 C-30.70415039 24.44778809 -31.40830078 24.89557617 -32.13378906 25.35693359 C-42.60369818 32 -42.60369818 32 -45 32 C-45 31.34 -45 30.68 -45 30 C-42.44391666 28.3706483 -39.88961007 26.8578676 -37.25 25.375 C-17.5174435 14.23545001 -17.5174435 14.23545001 0 0 Z " fill="#BBD8E6" transform="translate(984,403)"/>
<path d="M0 0 C4.16623353 1.48960305 7.75320844 3.59002155 11.4375 6 C12.3500354 6.59276733 12.3500354 6.59276733 13.28100586 7.19750977 C22.5505763 13.2703478 31.4951405 19.79116613 40.3125 26.5 C41.14890015 27.13216431 41.14890015 27.13216431 42.00219727 27.77709961 C45.88089916 30.76179833 45.88089916 30.76179833 47 33 C43.10771822 31.65688868 40.56925074 29.97140232 37.5 27.25 C32.07078108 22.69241078 26.34032974 18.73319106 20.4375 14.8125 C19.56351563 14.23081055 18.68953125 13.64912109 17.7890625 13.04980469 C12.56267674 9.60407285 7.26859482 6.35312861 1.82055664 3.26831055 C1.21977295 2.84976807 0.61898926 2.43122559 0 2 C0 1.34 0 0.68 0 0 Z " fill="#C6E4EF" transform="translate(558,263)"/>
<path d="M0 0 C0.99 0.33 1.98 0.66 3 1 C-5.30220264 7.8146066 -13.88466654 14.12140317 -22.75 20.1875 C-23.72662598 20.85918213 -24.70325195 21.53086426 -25.70947266 22.22290039 C-26.62519043 22.84414795 -27.5409082 23.46539551 -28.484375 24.10546875 C-29.30647461 24.66387451 -30.12857422 25.22228027 -30.97558594 25.79760742 C-33 27 -33 27 -35 27 C-35 26.34 -35 25.68 -35 25 C-33.27856445 23.64648438 -33.27856445 23.64648438 -30.86328125 22.09375 C-29.98124023 21.51906982 -29.09919922 20.94438965 -28.19042969 20.35229492 C-27.24071289 19.7410376 -26.29099609 19.12978027 -25.3125 18.5 C-12.01496296 10.09286067 -12.01496296 10.09286067 0 0 Z " fill="#BCDBE9" transform="translate(600,867)"/>
<path d="M0 0 C-1.09706506 3.29119517 -1.66553677 3.77178431 -4.3515625 5.7421875 C-5.03863281 6.25136719 -5.72570312 6.76054688 -6.43359375 7.28515625 C-7.51833984 8.07212891 -7.51833984 8.07212891 -8.625 8.875 C-9.32496094 9.39191406 -10.02492188 9.90882813 -10.74609375 10.44140625 C-12.14229868 11.46977983 -13.54234262 12.49296283 -14.94628906 13.51074219 C-16.30815669 14.49830668 -17.66438432 15.49369906 -19.01464844 16.49707031 C-23.7765592 20 -23.7765592 20 -26 20 C-26 19.34 -26 18.68 -26 18 C-24.55053711 16.76660156 -24.55053711 16.76660156 -22.52734375 15.390625 C-21.42422852 14.62878906 -21.42422852 14.62878906 -20.29882812 13.8515625 C-19.51958984 13.32304688 -18.74035156 12.79453125 -17.9375 12.25 C-12.83562563 8.77005827 -7.97021183 5.27187541 -3.41235352 1.09277344 C-2 0 -2 0 0 0 Z " fill="#C0DBE8" transform="translate(889,658)"/>
<path d="M0 0 C0.33 0.99 0.66 1.98 1 3 C-0.765625 5.69921875 -0.765625 5.69921875 -3.25 8.6875 C-4.05953125 9.68136719 -4.8690625 10.67523438 -5.703125 11.69921875 C-6.84007812 12.83810547 -6.84007812 12.83810547 -8 14 C-8.99 14 -9.98 14 -11 14 C-10.37351562 13.24074219 -9.74703125 12.48148437 -9.1015625 11.69921875 C-8.28429688 10.70535156 -7.46703125 9.71148437 -6.625 8.6875 C-5.81289062 7.70136719 -5.00078125 6.71523438 -4.1640625 5.69921875 C-1.94395043 3.01091621 -1.94395043 3.01091621 0 0 Z " fill="#C5E1EF" transform="translate(1050,336)"/>
<path d="M0 0 C4.63720719 3.27530896 8.68542782 6.30435607 12 11 C6.80546349 9.58330822 3.33817117 6.07891809 0 2 C0 1.34 0 0.68 0 0 Z " fill="#C1E7F5" transform="translate(291,655)"/>
<path d="M0 0 C0.99 0.33 1.98 0.66 3 1 C0.36 2.98 -2.28 4.96 -5 7 C-5 6.01 -5 5.02 -5 4 C-2.6875 1.75 -2.6875 1.75 0 0 Z " fill="#C6E0EC" transform="translate(984,403)"/>
</svg>
